<svg width="41" height="17" viewBox="0 0 41 17" fill="none" xmlns="http://www.w3.org/2000/svg">
<path d="M8.48535 0.841797C7.65716 0.872714 6.63589 1.2857 6.05247 1.86231C5.51599 2.36162 5.06085 3.16846 5.1782 3.92748C6.11369 3.99086 7.04731 3.54662 7.63073 2.98547C8.2041 2.40732 8.58259 1.63328 8.48535 0.841797ZM13.5312 0.841797V13.2087H15.2077V8.57111H17.7225C19.6982 8.57111 21.1329 7.18554 21.5666 5.47938H21.9137V4.70645C21.9137 2.5844 20.0238 0.841797 17.7225 0.841797H13.5312ZM15.2077 2.38766H17.7225C19.1094 2.38766 20.2372 3.4276 20.2372 4.70645C20.2372 5.9853 19.1094 7.02524 17.7225 7.02524H15.2077V2.38766ZM8.06623 3.93352C6.95974 3.93352 6.16935 4.48906 5.65299 4.48906C5.12825 4.48906 4.3448 3.93956 3.43949 3.93956C2.333 3.93956 1.24757 4.57889 0.675886 5.51259C-0.497663 7.37845 0.372597 10.1417 1.50759 11.6628C2.06418 12.4141 2.73392 13.2087 3.63923 13.2087C4.46909 13.1809 4.74868 12.7437 5.75122 12.7437C6.76047 12.7437 7.05941 13.2087 7.96472 13.2087C8.87003 13.2087 9.42029 12.4428 9.97521 11.69C10.6089 10.8367 10.8655 10.0063 10.8822 9.96298C10.8671 9.94907 9.12913 9.33309 9.11404 7.48115C9.09895 5.9322 10.4829 5.19504 10.545 5.1533C9.76371 4.08202 8.46951 3.93352 8.16774 3.93352H8.06623ZM26.3145 3.93352C24.6879 3.93352 23.6645 4.39048 23.1154 4.96913C22.5663 5.54777 22.5424 6.25231 22.5424 6.25231H24.2189C24.2189 6.25231 24.195 6.18392 24.3793 5.98964C24.5637 5.79535 25.0072 5.47938 26.3145 5.47938C27.8986 5.47938 28.2907 5.90263 28.4855 6.2342C28.6802 6.56576 28.6295 6.89843 28.6295 6.89843L28.6197 6.96184V7.02524H25.8954C23.4611 7.18138 21.917 8.30176 21.917 10.1321C21.917 11.9809 23.2777 13.2087 25.2241 13.2087C26.8103 13.2087 27.8889 12.4492 28.6197 11.4998V13.2087H30.2962V7.02524L30.2864 7.15205C30.2864 7.15205 30.4452 6.32533 29.9589 5.4975C29.4727 4.66967 28.293 3.93352 26.3145 3.93352ZM31.9825 3.93352L35.2766 12.7316L34.7134 14.2352C34.5977 14.5444 34.2764 14.7546 33.921 14.7546H31.9727V16.3004H33.921C34.9923 16.3004 35.9495 15.6717 36.2982 14.7364L40.3454 3.93352H38.5739L36.1639 10.3615L33.754 3.93352H31.9825ZM25.9576 8.57111H28.217C27.8833 9.76296 27.0649 11.6628 25.2241 11.6628C24.1864 11.6628 23.5935 11.1044 23.5935 10.1321C23.5935 8.98503 24.8645 8.6484 25.9576 8.57111Z" fill="white"/>
</svg>
