<svg width="26" height="26" viewBox="0 0 26 26" fill="none" xmlns="http://www.w3.org/2000/svg">
<path d="M22.7173 17.4198C22.4573 20.3123 20.3665 22.2082 17.3332 22.2082H7.58317C4.59317 22.2082 2.1665 19.7815 2.1665 16.7915V9.20817C2.1665 6.2615 3.94317 4.20317 6.70567 3.8565C6.98734 3.81317 7.27984 3.7915 7.58317 3.7915H17.3332C17.6148 3.7915 17.8857 3.80234 18.1457 3.84567C20.7348 4.149 22.4898 5.95817 22.7173 8.57984C22.7234 8.65402 22.7139 8.72866 22.6892 8.79891C22.6646 8.86916 22.6255 8.93344 22.5744 8.98759C22.5233 9.04173 22.4614 9.08453 22.3927 9.1132C22.324 9.14187 22.2501 9.15577 22.1757 9.154H20.4965C19.4565 9.154 18.4923 9.55484 17.799 10.2698C16.9757 11.0715 16.564 12.1982 16.6615 13.3248C16.8348 15.2965 18.5682 16.8457 20.6265 16.8457H22.1757C22.4898 16.8457 22.7498 17.1057 22.7173 17.4198Z" fill="#E5E5E5"/>
<path d="M23.8334 11.8843V14.116C23.8334 14.7118 23.3567 15.1993 22.7501 15.221H20.6267C19.4567 15.221 18.3842 14.3651 18.2867 13.1951C18.2217 12.5126 18.4817 11.8735 18.9367 11.4293C19.3376 11.0176 19.8901 10.7793 20.4967 10.7793H22.7501C23.3567 10.801 23.8334 11.2885 23.8334 11.8843Z" fill="#E5E5E5"/>
</svg>
