<svg width="22" height="22" viewBox="0 0 22 22" fill="none" xmlns="http://www.w3.org/2000/svg">
<path d="M3.6665 16.5002V10.0835M7.33317 16.5002V10.0835M10.9998 16.5002V10.0835M14.6665 16.5002V10.0835M18.3332 16.5002V10.0835M0.916504 20.1668H21.0832M11.339 1.97102L19.589 5.27102C19.9098 5.39935 20.1665 5.78435 20.1665 6.12352V9.16685C20.1665 9.67102 19.754 10.0835 19.2498 10.0835H2.74984C2.24567 10.0835 1.83317 9.67102 1.83317 9.16685V6.12352C1.83317 5.78435 2.08984 5.39935 2.41067 5.27102L10.6607 1.97102C10.844 1.89768 11.1557 1.89768 11.339 1.97102ZM20.1665 20.1668H1.83317V17.4168C1.83317 16.9127 2.24567 16.5002 2.74984 16.5002H19.2498C19.754 16.5002 20.1665 16.9127 20.1665 17.4168V20.1668Z" stroke="#E5E5E5" stroke-width="1.5" stroke-miterlimit="10" stroke-linecap="round" stroke-linejoin="round"/>
<path d="M11 7.7915C11.1806 7.7915 11.3594 7.75594 11.5262 7.68684C11.693 7.61774 11.8446 7.51646 11.9723 7.38878C12.1 7.2611 12.2012 7.10952 12.2703 6.94269C12.3394 6.77587 12.375 6.59707 12.375 6.4165C12.375 6.23594 12.3394 6.05714 12.2703 5.89031C12.2012 5.72349 12.1 5.57191 11.9723 5.44423C11.8446 5.31655 11.693 5.21527 11.5262 5.14617C11.3594 5.07707 11.1806 5.0415 11 5.0415C10.6353 5.0415 10.2856 5.18637 10.0277 5.44423C9.76987 5.70209 9.625 6.05183 9.625 6.4165C9.625 6.78118 9.76987 7.13091 10.0277 7.38878C10.2856 7.64664 10.6353 7.7915 11 7.7915Z" stroke="#E5E5E5" stroke-width="1.5" stroke-miterlimit="10" stroke-linecap="round" stroke-linejoin="round"/>
</svg>
