<svg width="14" height="16" viewBox="0 0 14 16" fill="none" xmlns="http://www.w3.org/2000/svg">
<path d="M6.99995 15.4994C7.85618 15.4994 8.55992 14.847 8.64148 14.0122H5.35843C5.43999 14.847 6.14373 15.4994 6.99995 15.4994Z" fill="white"/>
<path d="M12.7396 10.6906C12.2364 10.6906 11.8286 10.2827 11.8286 9.77959V6.76628C11.8286 4.62938 10.4403 2.81697 8.51659 2.18103C8.5219 2.12943 8.52462 2.07714 8.52462 2.02417C8.52462 1.18347 7.84066 0.499512 6.99996 0.499512C6.15926 0.499512 5.4753 1.18347 5.4753 2.02417C5.4753 2.07714 5.47805 2.12943 5.48333 2.18103C3.55962 2.81697 2.17139 4.62938 2.17139 6.76628V9.77959C2.17139 10.2827 1.7635 10.6906 1.26035 10.6906C0.585826 10.6906 0.039032 11.2374 0.039032 11.912C0.039032 12.5865 0.585855 13.1333 1.26035 13.1333H12.7396C13.4141 13.1333 13.9609 12.5865 13.9609 11.912C13.9609 11.2374 13.4141 10.6906 12.7396 10.6906ZM6.99996 1.37841C7.34138 1.37841 7.62158 1.64478 7.64408 1.98058C7.43335 1.95248 7.2184 1.93772 6.99996 1.93772C6.78152 1.93772 6.56657 1.95248 6.35584 1.98058C6.37834 1.64478 6.65854 1.37841 6.99996 1.37841V1.37841Z" fill="white"/>
</svg>
