<svg width="22" height="20" viewBox="0 0 22 20" fill="none" xmlns="http://www.w3.org/2000/svg">
<path d="M10.6318 0C4.8181 0 0.105469 4.477 0.105469 10C0.105469 15.523 4.8181 20 10.6318 20C16.4455 20 21.1581 15.523 21.1581 10C21.1581 4.477 16.4455 0 10.6318 0ZM9.99239 3.12695H11.3596V5.04101C11.748 5.06001 12.1137 5.1025 12.4369 5.1875C12.8516 5.2965 13.2021 5.46445 13.4895 5.68945C13.7769 5.91645 13.9968 6.19901 14.1495 6.54101C14.3 6.88301 14.3756 7.28695 14.3756 7.75195C14.3756 7.97995 14.3511 8.19625 14.2995 8.40625C14.2501 8.61625 14.1705 8.81114 14.0631 8.99414C13.9536 9.17714 13.8172 9.34323 13.6499 9.49023C13.4857 9.63823 13.2872 9.76047 13.0578 9.85546C13.3262 9.92846 13.554 10.0405 13.7403 10.1875C13.9277 10.3355 14.0789 10.5061 14.1947 10.7031C14.3105 10.9001 14.3929 11.1127 14.4455 11.3437C14.4981 11.5727 14.5257 11.8098 14.5257 12.0508C14.5257 13.0168 14.2458 13.7463 13.6869 14.2383C13.1469 14.7143 12.368 14.9547 11.3596 14.9707V16.8223H9.99239V14.9766H7.7905V5.02344H9.99239V3.12695ZM9.90604 6.69726V9.18554H11.008C11.4301 9.18654 11.7413 9.083 11.9455 8.875C12.1487 8.668 12.2518 8.36389 12.2518 7.96289C12.2518 7.51189 12.1556 7.18919 11.964 6.99219C11.7724 6.79519 11.4601 6.69726 11.0286 6.69726H9.90604ZM9.90604 10.6484V13.3086H11.2588C11.4651 13.3086 11.6398 13.2769 11.7872 13.2129C11.9335 13.1499 12.0523 13.0574 12.147 12.9414C12.2396 12.8244 12.3094 12.6902 12.3526 12.5352C12.3957 12.3802 12.4163 12.2085 12.4163 12.0215C12.4163 11.5975 12.3359 11.2636 12.1696 11.0176C12.0054 10.7726 11.7245 10.6484 11.3308 10.6484H9.90604Z" fill="#E5E5E5"/>
</svg>
