<svg width="10" height="11" viewBox="0 0 10 11" fill="none" xmlns="http://www.w3.org/2000/svg">
<path fill-rule="evenodd" clip-rule="evenodd" d="M5.47803 0.128418C4.28455 0.128418 3.13996 0.602954 2.29605 1.44763C1.45213 2.29231 0.978027 3.43795 0.978027 4.6325C0.978027 5.82706 1.45213 6.97269 2.29605 7.81737C3.13996 8.66205 4.28455 9.13659 5.47803 9.13659V10.3877C5.47803 10.5784 5.68412 10.7003 5.84912 10.6047C6.8188 10.0428 9.38256 8.18941 9.88525 5.5386L9.89307 5.49364C9.91488 5.37258 9.93591 5.25141 9.94873 5.12709C9.96756 4.96289 9.97733 4.79778 9.97803 4.6325C9.97803 3.43795 9.50392 2.29231 8.66001 1.44763C7.81609 0.602954 6.6715 0.128418 5.47803 0.128418ZM6.97831 5.13379C7.25445 5.13379 7.47831 5.3581 7.47831 5.63424C7.47831 5.91039 7.25445 6.1347 6.97831 6.1347L3.97831 6.1347C3.70217 6.1347 3.47831 5.91039 3.47831 5.63424C3.47831 5.3581 3.70217 5.13379 3.97831 5.13379H6.97831ZM7.47831 3.63473C7.47831 3.35859 7.25445 3.13428 6.97831 3.13428L3.97831 3.13428C3.70217 3.13428 3.47831 3.35859 3.47831 3.63473C3.47831 3.91087 3.70217 4.13519 3.97831 4.13519L6.97831 4.13519C7.25445 4.13519 7.47831 3.91087 7.47831 3.63473Z" fill="#FFCC00"/>
</svg>
