<svg width="14" height="16" viewBox="0 0 14 16" fill="none" xmlns="http://www.w3.org/2000/svg">
<path d="M6.99992 15.4999C7.85615 15.4999 8.55988 14.8475 8.64145 14.0127H5.3584C5.43996 14.8475 6.1437 15.4999 6.99992 15.4999Z" fill="#FF1313"/>
<path d="M12.7396 10.6911C12.2365 10.6911 11.8286 10.2832 11.8286 9.78008V6.76677C11.8286 4.62987 10.4404 2.81746 8.51662 2.18151C8.52193 2.12992 8.52465 2.07763 8.52465 2.02466C8.52465 1.18396 7.84069 0.5 6.99999 0.5C6.15929 0.5 5.47533 1.18396 5.47533 2.02466C5.47533 2.07763 5.47809 2.12992 5.48336 2.18151C3.55965 2.81746 2.17142 4.62987 2.17142 6.76677V9.78008C2.17142 10.2832 1.76353 10.6911 1.26038 10.6911C0.585856 10.6911 0.0390625 11.2379 0.0390625 11.9124C0.0390625 12.587 0.585886 13.1338 1.26038 13.1338H12.7396C13.4142 13.1338 13.9609 12.587 13.9609 11.9124C13.9609 11.2379 13.4141 10.6911 12.7396 10.6911ZM6.99999 1.3789C7.34141 1.3789 7.62161 1.64527 7.64411 1.98107C7.43338 1.95297 7.21843 1.9382 6.99999 1.9382C6.78155 1.9382 6.56661 1.95297 6.35587 1.98107C6.37837 1.64527 6.65857 1.3789 6.99999 1.3789Z" fill="#FF1313"/>
</svg>
