<svg width="12" height="14" viewBox="0 0 12 14" fill="none" xmlns="http://www.w3.org/2000/svg">
<path fill-rule="evenodd" clip-rule="evenodd" d="M7.9872 13.2237H3.22291C2.40138 13.2237 1.78899 12.6467 1.72806 11.946L0.920075 2.67178C0.90068 2.44904 1.13396 2.26562 1.39524 2.26562H9.81504C10.0763 2.26562 10.3096 2.44946 10.2902 2.67178L9.48223 11.946C9.4213 12.6461 8.80817 13.2237 7.98738 13.2237H7.9872ZM4.07444 11.6833C3.88964 11.6929 3.7279 11.5495 3.71509 11.3641L3.25877 4.75664C3.24596 4.57152 3.38684 4.41205 3.57164 4.40222C3.75644 4.3926 3.91818 4.53603 3.93099 4.72137L4.38731 11.3289C4.40012 11.514 4.25923 11.6735 4.07444 11.6833ZM5.5863 11.6901C5.40113 11.6901 5.24964 11.5382 5.24964 11.3526V4.73313C5.24964 4.54736 5.40113 4.39559 5.5863 4.39559C5.77146 4.39559 5.92296 4.54758 5.92296 4.73313V11.3526C5.92296 11.5384 5.77146 11.6901 5.5863 11.6901ZM7.09816 11.6833C7.28296 11.6929 7.4447 11.5495 7.45751 11.3641L7.91365 4.75664C7.92645 4.57152 7.78575 4.41205 7.60077 4.40222C7.41597 4.39238 7.25423 4.53603 7.24142 4.72137L6.78528 11.3289C6.77248 11.514 6.91318 11.6735 7.09816 11.6833Z" fill="#E5E5E5"/>
<path fill-rule="evenodd" clip-rule="evenodd" d="M3.50071 2.73113H3.97771V1.46371C3.97771 1.18902 4.17019 0.96414 4.4053 0.96414H6.81133C7.04644 0.96414 7.23892 1.18902 7.23892 1.46371V2.73113H7.71592C7.77447 2.73113 7.82241 2.67512 7.82241 2.60672V1.50668C7.82241 0.833315 7.35072 0.282227 6.77437 0.282227H4.44208C3.86573 0.282227 3.39404 0.833315 3.39404 1.50668V2.60672C3.39404 2.67512 3.44198 2.73113 3.50053 2.73113H3.50071Z" fill="#E5E5E5"/>
<rect x="11.0869" y="1.90039" width="0.78726" height="11" rx="0.39363" transform="rotate(90 11.0869 1.90039)" fill="#E5E5E5"/>
</svg>
