<svg width="13" height="13" viewBox="0 0 13 13" fill="none" xmlns="http://www.w3.org/2000/svg">
<path d="M11.7 2.6H10.283C10.3545 2.3985 10.4 2.1775 10.4 1.95C10.4 0.871 9.529 0 8.45 0C7.7675 0 7.176 0.351 6.825 0.8775L6.5 1.313L6.175 0.871C5.824 0.351 5.2325 0 4.55 0C3.471 0 2.6 0.871 2.6 1.95C2.6 2.1775 2.6455 2.3985 2.717 2.6H1.3C0.5785 2.6 0.00649999 3.1785 0.00649999 3.9L0 11.05C0 11.7715 0.5785 12.35 1.3 12.35H11.7C12.4215 12.35 13 11.7715 13 11.05V3.9C13 3.1785 12.4215 2.6 11.7 2.6ZM8.45 1.3C8.8075 1.3 9.1 1.5925 9.1 1.95C9.1 2.3075 8.8075 2.6 8.45 2.6C8.0925 2.6 7.8 2.3075 7.8 1.95C7.8 1.5925 8.0925 1.3 8.45 1.3ZM4.55 1.3C4.9075 1.3 5.2 1.5925 5.2 1.95C5.2 2.3075 4.9075 2.6 4.55 2.6C4.1925 2.6 3.9 2.3075 3.9 1.95C3.9 1.5925 4.1925 1.3 4.55 1.3ZM11.7 11.05H1.3V9.75H11.7V11.05ZM11.7 7.8H1.3V4.55C1.3 4.1925 1.5925 3.9 1.95 3.9H4.602L3.64 5.213C3.4255 5.5055 3.4905 5.915 3.783 6.123C4.069 6.331 4.4785 6.266 4.6865 5.98L6.5 3.51L8.3135 5.98C8.5215 6.266 8.931 6.331 9.217 6.123C9.5095 5.915 9.5745 5.5055 9.36 5.213L8.398 3.9H11.05C11.4075 3.9 11.7 4.1925 11.7 4.55V7.8Z" fill="#C4C4C4"/>
</svg>
