<svg width="20" height="18" viewBox="0 0 20 18" fill="none" xmlns="http://www.w3.org/2000/svg">
<path d="M9.69958 0C4.34243 0 0 3.69375 0 8.25C0 10.2571 0.844775 12.0946 2.24565 13.5249C2.27394 13.5956 2.9927 15.455 0.86416 17.3511C0.826876 17.3862 0.79716 17.4286 0.776856 17.4757C0.756551 17.5228 0.746091 17.5737 0.746121 17.625C0.746121 17.7245 0.785426 17.8198 0.855389 17.8902C0.925351 17.9605 1.02024 18 1.11918 18C1.14614 18 1.17301 17.997 1.19933 17.9912C3.34507 17.8634 5.18066 16.7931 6.30123 15.9683C7.36027 16.3059 8.50193 16.5 9.69958 16.5C15.0567 16.5 19.3992 12.8062 19.3992 8.25C19.3992 3.69375 15.0567 0 9.69958 0ZM9.69958 3.375C10.3174 3.375 10.8188 3.879 10.8188 4.5C10.8188 5.121 10.3174 5.625 9.69958 5.625C9.08179 5.625 8.5804 5.121 8.5804 4.5C8.5804 3.879 9.08179 3.375 9.69958 3.375ZM8.95346 7.5H10.4457V12.75H8.95346V7.5Z" fill="#C4C4C4"/>
</svg>
