<svg width="24" height="24" viewBox="0 0 24 24" fill="none" xmlns="http://www.w3.org/2000/svg">
<path d="M0.5 11.7895C0.5 5.56259 5.64016 0.5 12 0.5C18.3598 0.5 23.5 5.56259 23.5 11.7895C23.5 18.0163 18.3598 23.0789 12 23.0789C5.64016 23.0789 0.5 18.0163 0.5 11.7895ZM10.3 16.5053C10.3 17.4405 11.0698 18.1842 12 18.1842C12.9302 18.1842 13.7 17.4405 13.7 16.5053V11.7895C13.7 10.8542 12.9302 10.1105 12 10.1105C11.0698 10.1105 10.3 10.8542 10.3 11.7895V16.5053ZM11.4 8.75263H12.6C13.199 8.75263 13.7 8.27299 13.7 7.66316V6.48421C13.7 5.87437 13.199 5.39474 12.6 5.39474H11.4C10.801 5.39474 10.3 5.87437 10.3 6.48421V7.66316C10.3 8.27299 10.801 8.75263 11.4 8.75263Z" stroke="white"/>
</svg>
