<svg width="21" height="21" viewBox="0 0 21 21" fill="none" xmlns="http://www.w3.org/2000/svg">
<path d="M17.3775 7.07865C17.3775 7.44615 17.3512 7.8049 17.3075 8.14615C16.6359 7.85306 15.8849 7.79556 15.1765 7.98299C14.4681 8.17041 13.8438 8.59177 13.405 9.17865C13.1012 8.7741 12.7074 8.44573 12.2549 8.21946C11.8024 7.9932 11.3034 7.87524 10.7975 7.8749C9.00375 7.8749 7.55125 9.33615 7.55125 11.1474C7.55125 13.4924 8.79375 15.2862 10.1762 16.5024C10.1325 16.5287 10.0887 16.5374 10.045 16.5549C9.7825 16.6512 9.345 16.6512 9.0825 16.5549C6.81625 15.7762 1.75 12.5562 1.75 7.07865C1.75 4.66365 3.6925 2.7124 6.09 2.7124C7.51625 2.7124 8.77625 3.3949 9.56375 4.45365C9.96749 3.91329 10.4917 3.47454 11.0947 3.17227C11.6977 2.87 12.363 2.71254 13.0375 2.7124C15.435 2.7124 17.3775 4.66365 17.3775 7.07865Z" stroke="#C4C4C4" stroke-width="1.5" stroke-linecap="round" stroke-linejoin="round"/>
<path d="M19.25 11.1475C19.25 15.2425 15.4613 17.6575 13.7638 18.235C13.5625 18.305 13.2388 18.305 13.0375 18.235C12.3113 17.99 11.2 17.4038 10.1763 16.5025C8.79377 15.2863 7.55127 13.4925 7.55127 11.1475C7.55127 9.33627 9.00377 7.87502 10.7975 7.87502C11.865 7.87502 12.81 8.39127 13.405 9.17877C13.8438 8.59188 14.4681 8.17053 15.1765 7.9831C15.8849 7.79567 16.6359 7.85317 17.3075 8.14627C18.4538 8.65377 19.25 9.80002 19.25 11.1475Z" stroke="#C4C4C4" stroke-width="1.5" stroke-linecap="round" stroke-linejoin="round"/>
</svg>
