<svg width="12" height="11" viewBox="0 0 12 11" fill="none" xmlns="http://www.w3.org/2000/svg">
<path d="M0.78418 10.1086H2.78418V4.6036H0.78418V10.1086ZM11.7842 5.06235C11.7842 4.55772 11.3342 4.14485 10.7842 4.14485H7.62918L8.10418 2.04836L8.11918 1.90156C8.11918 1.71347 8.03418 1.53914 7.89918 1.41528L7.36918 0.933594L4.07918 3.95676C3.89418 4.12191 3.78418 4.35128 3.78418 4.6036V9.1911C3.78418 9.69573 4.23418 10.1086 4.78418 10.1086H9.28418C9.69918 10.1086 10.0542 9.87923 10.2042 9.54893L11.7142 6.31474C11.7592 6.20922 11.7842 6.09912 11.7842 5.97985V5.06235Z" fill="white"/>
</svg>
