<svg width="13" height="14" viewBox="0 0 13 14" fill="none" xmlns="http://www.w3.org/2000/svg">
<path fill-rule="evenodd" clip-rule="evenodd" d="M5.0289 10.8261C7.80656 10.8261 10.0583 8.49244 10.0583 5.61369C10.0583 2.73493 7.80656 0.401245 5.0289 0.401245C2.25125 0.401245 -0.000488281 2.73493 -0.000488281 5.61369C-0.000488281 8.49244 2.25125 10.8261 5.0289 10.8261ZM5.07412 9.03529C6.87152 9.03529 8.32859 7.52518 8.32859 5.66236C8.32859 3.79955 6.87152 2.28944 5.07412 2.28944C3.27672 2.28944 1.81964 3.79955 1.81964 5.66236C1.81964 7.52518 3.27672 9.03529 5.07412 9.03529Z" fill="#C4C4C4"/>
<rect width="6.06045" height="2.53449" rx="1.26725" transform="matrix(-0.694358 -0.71963 0.694358 -0.71963 10.7827 14)" fill="#C4C4C4"/>
</svg>
