<svg width="40" height="17" viewBox="0 0 40 17" fill="none" xmlns="http://www.w3.org/2000/svg">
<path d="M5.36917 11.9637L9.45625 9.08083C9.85292 8.7975 9.85292 8.2025 9.45625 7.92625L5.36917 5.03625C4.89458 4.71042 4.25 5.04333 4.25 5.61708V11.3829C4.25 11.9567 4.89458 12.2896 5.36917 11.9637ZM11.3333 4.95833V12.0417C11.3333 12.4312 11.6521 12.75 12.0417 12.75C12.4312 12.75 12.75 12.4312 12.75 12.0417V4.95833C12.75 4.56875 12.4312 4.25 12.0417 4.25C11.6521 4.25 11.3333 4.56875 11.3333 4.95833Z" fill="white"/>
<path d="M18.1632 12V4.97H19.1132L19.5232 6.33V12H18.1632ZM23.0232 12L18.8532 6.6L19.1132 4.97L23.2832 10.37L23.0232 12ZM23.0232 12L22.6332 10.68V4.97H24.0032V12H23.0232ZM27.7988 12.1C27.2921 12.1 26.8421 11.9933 26.4488 11.78C26.0555 11.56 25.7421 11.26 25.5088 10.88C25.2821 10.5 25.1688 10.0667 25.1688 9.58C25.1688 9.1 25.2788 8.67333 25.4988 8.3C25.7255 7.92 26.0321 7.62 26.4188 7.4C26.8055 7.17333 27.2355 7.06 27.7088 7.06C28.1755 7.06 28.5855 7.16667 28.9388 7.38C29.2988 7.58667 29.5788 7.87333 29.7788 8.24C29.9855 8.6 30.0888 9.01 30.0888 9.47C30.0888 9.55667 30.0821 9.64667 30.0688 9.74C30.0621 9.82667 30.0455 9.92667 30.0188 10.04L25.9588 10.05V9.07L29.4088 9.06L28.8788 9.47C28.8655 9.18333 28.8121 8.94333 28.7188 8.75C28.6321 8.55667 28.5021 8.41 28.3288 8.31C28.1621 8.20333 27.9555 8.15 27.7088 8.15C27.4488 8.15 27.2221 8.21 27.0288 8.33C26.8355 8.44333 26.6855 8.60667 26.5788 8.82C26.4788 9.02667 26.4288 9.27333 26.4288 9.56C26.4288 9.85333 26.4821 10.11 26.5888 10.33C26.7021 10.5433 26.8621 10.71 27.0688 10.83C27.2755 10.9433 27.5155 11 27.7888 11C28.0355 11 28.2588 10.96 28.4588 10.88C28.6588 10.7933 28.8321 10.6667 28.9788 10.5L29.7488 11.27C29.5155 11.5433 29.2288 11.75 28.8888 11.89C28.5555 12.03 28.1921 12.1 27.7988 12.1ZM33.992 12L32.722 10.04L32.452 9.84L30.572 7.17H32.122L33.292 8.94L33.542 9.13L35.532 12H33.992ZM30.472 12L32.442 9.24L33.192 10.13L31.952 12H30.472ZM33.592 9.83L32.822 8.95L33.972 7.17H35.442L33.592 9.83ZM36.9601 12V5.16H38.2701V12H36.9601ZM35.8301 8.32V7.17H39.4001V8.32H35.8301Z" fill="white"/>
</svg>
