<svg width="13" height="7" viewBox="0 0 13 7" fill="none" xmlns="http://www.w3.org/2000/svg">
<path d="M7.63003 6.13977L12.8063 0.625063C12.8198 0.614753 12.8291 0.599867 12.8324 0.583203C12.8357 0.566538 12.8327 0.549244 12.8242 0.53457C12.8156 0.519897 12.802 0.508856 12.7859 0.503523C12.7697 0.49819 12.7522 0.498932 12.7366 0.505611H0.930753C0.915134 0.498932 0.897613 0.49819 0.881484 0.503523C0.865356 0.508856 0.851731 0.519897 0.843171 0.53457C0.834612 0.549244 0.831707 0.566538 0.835004 0.583203C0.838301 0.599867 0.847571 0.614753 0.861073 0.625063L6.03733 6.13977C6.13969 6.24823 6.26312 6.33463 6.40005 6.39369C6.53699 6.45275 6.68455 6.48321 6.83368 6.48321C6.98281 6.48321 7.13037 6.45275 7.2673 6.39369C7.40424 6.33463 7.52767 6.24823 7.63003 6.13977Z" fill="white"/>
</svg>
