<svg width="101" height="20" viewBox="0 0 101 20" fill="none" xmlns="http://www.w3.org/2000/svg">
<path d="M8.16868 3.2236C8.45477 2.2754 9.79735 2.27539 10.0834 3.22359L10.9576 6.12083C11.085 6.54306 11.4739 6.83198 11.9149 6.83198L14.8925 6.83198C15.8432 6.83198 16.2574 8.03371 15.5087 8.61955L12.9754 10.6017C12.6506 10.8558 12.5151 11.2833 12.6342 11.6781L13.5713 14.784C13.8533 15.7185 12.7665 16.4619 11.9977 15.8604L9.74228 14.0957C9.38028 13.8124 8.87183 13.8124 8.50984 14.0957L6.25438 15.8604C5.48562 16.4619 4.39884 15.7185 4.68079 14.784L5.61787 11.6781C5.73699 11.2833 5.60152 10.8558 5.27672 10.6017L2.74343 8.61955C1.99469 8.03371 2.40896 6.83198 3.35966 6.83198L6.33718 6.83198C6.77821 6.83198 7.16716 6.54306 7.29456 6.12083L8.16868 3.2236Z" fill="#FFCC00"/>
<path d="M27.8131 2.7636C28.1247 1.86863 29.3904 1.86863 29.7019 2.7636L30.8847 6.16109C31.0246 6.56299 31.4036 6.83231 31.8291 6.83231L35.5018 6.83231C36.4871 6.83231 36.8785 8.10696 36.063 8.65997L33.2131 10.5925C32.8383 10.8467 32.6811 11.3211 32.83 11.7489L33.946 14.9548C34.2626 15.8641 33.2373 16.6516 32.4404 16.1112L29.3188 13.9944C28.9799 13.7646 28.5352 13.7646 28.1963 13.9944L25.0747 16.1112C24.2778 16.6516 23.2525 15.8641 23.569 14.9548L24.6851 11.7489C24.834 11.3211 24.6768 10.8467 24.3019 10.5925L21.4521 8.65997C20.6366 8.10696 21.028 6.83231 22.0133 6.83231L25.686 6.83231C26.1115 6.83231 26.4905 6.56299 26.6304 6.16109L27.8131 2.7636Z" fill="#FFCC00"/>
<path d="M48.1329 2.97783C48.4322 2.05652 49.7356 2.05652 50.035 2.97783L51.0629 6.14133C51.1967 6.55335 51.5807 6.83231 52.0139 6.83231L55.3402 6.83231C56.3089 6.83231 56.7117 8.07193 55.928 8.64133L53.237 10.5965C52.8865 10.8511 52.7398 11.3025 52.8737 11.7145L53.9016 14.878C54.2009 15.7993 53.1464 16.5654 52.3627 15.996L49.6717 14.0409C49.3212 13.7863 48.8466 13.7863 48.4961 14.0409L45.8051 15.996C45.0214 16.5654 43.9669 15.7993 44.2663 14.878L45.2941 11.7145C45.428 11.3025 45.2814 10.8511 44.9309 10.5965L42.2398 8.64133C41.4561 8.07193 41.8589 6.83231 42.8276 6.83231L46.1539 6.83231C46.5871 6.83231 46.9711 6.55335 47.105 6.14133L48.1329 2.97783Z" fill="#FFCC00"/>
<path d="M68.7789 2.97783C69.0782 2.05652 70.3816 2.05652 70.681 2.97783L71.7089 6.14133C71.8427 6.55335 72.2267 6.83231 72.6599 6.83231L75.9862 6.83231C76.9549 6.83231 77.3577 8.07193 76.574 8.64133L73.883 10.5965C73.5325 10.8511 73.3858 11.3025 73.5197 11.7145L74.5476 14.878C74.8469 15.7993 73.7924 16.5654 73.0087 15.996L70.3177 14.0409C69.9672 13.7863 69.4926 13.7863 69.1421 14.0409L66.4511 15.996C65.6674 16.5654 64.6129 15.7993 64.9123 14.878L65.9401 11.7145C66.074 11.3025 65.9274 10.8511 65.5769 10.5965L62.8858 8.64133C62.1021 8.07193 62.5049 6.83231 63.4736 6.83231L66.7999 6.83231C67.2331 6.83231 67.6171 6.55335 67.751 6.14133L68.7789 2.97783Z" fill="#FFCC00"/>
<path d="M88.7902 2.97783C89.0896 2.05652 90.393 2.05652 90.6923 2.97783L91.7202 6.14133C91.8541 6.55335 92.238 6.83231 92.6713 6.83231L95.9976 6.83231C96.9663 6.83231 97.3691 8.07193 96.5853 8.64133L93.8943 10.5965C93.5438 10.8511 93.3972 11.3025 93.531 11.7145L94.5589 14.878C94.8583 15.7993 93.8038 16.5654 93.0201 15.996L90.3291 14.0409C89.9786 13.7863 89.504 13.7863 89.1535 14.0409L86.4624 15.996C85.6787 16.5654 84.6243 15.7993 84.9236 14.878L85.9515 11.7145C86.0854 11.3025 85.9387 10.8511 85.5882 10.5965L82.8972 8.64133C82.1135 8.07193 82.5162 6.83231 83.485 6.83231L86.8113 6.83231C87.2445 6.83231 87.6285 6.55335 87.7623 6.14133L88.7902 2.97783Z" fill="#C4C4C4"/>
<path d="M88.6527 2.7636C88.9642 1.86863 90.2299 1.86863 90.5415 2.7636L91.7242 6.16109C91.8642 6.56299 92.2431 6.83231 92.6687 6.83231L96.3413 6.83231C97.3266 6.83231 97.7181 8.10696 96.9025 8.65997L94.0527 10.5925C93.6778 10.8467 93.5206 11.3211 93.6695 11.7489L94.7856 14.9548C95.1021 15.8641 94.0768 16.6516 93.2799 16.1112L90.1583 13.9944C89.8194 13.7646 89.3747 13.7646 89.0358 13.9944L85.9142 16.1112C85.1173 16.6516 84.092 15.8641 84.4086 14.9548L85.5246 11.7489C85.6735 11.3211 85.5163 10.8467 85.1415 10.5925L82.2916 8.65997C81.4761 8.10696 81.8675 6.83231 82.8529 6.83231L86.5255 6.83231C86.9511 6.83231 87.33 6.56299 87.4699 6.16109L88.6527 2.7636Z" fill="url(#paint0_linear_149_1190)"/>
<defs>
<linearGradient id="paint0_linear_149_1190" x1="68.5664" y1="19.6794" x2="89.5971" y2="19.6794" gradientUnits="userSpaceOnUse">
<stop offset="0.9999" stop-color="#C4C4C4"/>
<stop offset="1" stop-color="#C4C4C4"/>
</linearGradient>
</defs>
</svg>
