<svg width="14" height="14" viewBox="0 0 14 14" fill="none" xmlns="http://www.w3.org/2000/svg">
<path d="M7.06149 0.759766C6.91908 0.759766 6.7978 0.860368 6.7718 0.999822L6.66216 1.58381C6.61666 1.82667 6.42317 2.00564 6.18089 2.05469C5.97939 2.09546 5.78147 2.14727 5.58883 2.21049C5.35483 2.28731 5.09804 2.22987 4.93791 2.04315L4.55358 1.59419C4.46081 1.48665 4.30371 1.46096 4.1808 1.53187L3.83918 1.72923C3.71568 1.80014 3.66034 1.9494 3.70762 2.08354L3.90612 2.6456C3.98767 2.87841 3.90985 3.12878 3.72608 3.29306C3.57422 3.42897 3.42976 3.57283 3.29444 3.7247C3.13017 3.90847 2.8798 3.98629 2.64698 3.90474L2.08377 3.70739C1.94963 3.66011 1.80152 3.71605 1.73061 3.83896L1.5321 4.18057C1.4606 4.30407 1.48744 4.46058 1.59558 4.55336L2.04453 4.93768C2.23126 5.09781 2.28869 5.3546 2.21188 5.5886C2.14865 5.78124 2.09684 5.97916 2.05607 6.18066C2.00703 6.42294 1.82805 6.61643 1.58519 6.66193L1.00121 6.77157C0.86116 6.79757 0.759995 6.91885 0.759995 7.06126V7.45827C0.759995 7.60068 0.860597 7.72196 1.00005 7.74796L1.58404 7.8576C1.8269 7.9031 2.00587 8.09659 2.05492 8.33887C2.09569 8.54096 2.1475 8.73829 2.21072 8.93093C2.28754 9.16493 2.2301 9.42172 2.04338 9.58185L1.59442 9.96618C1.48688 10.0589 1.46119 10.216 1.5321 10.339L1.72945 10.6806C1.80036 10.8041 1.94963 10.8594 2.08377 10.8121L2.64583 10.6136C2.87864 10.5321 3.12901 10.6099 3.29329 10.7937C3.4292 10.9455 3.57306 11.09 3.72493 11.2253C3.9087 11.3896 3.98652 11.64 3.90497 11.8728L3.70762 12.436C3.66034 12.5701 3.71628 12.7182 3.83918 12.7892L4.1808 12.9877C4.3043 13.0592 4.46081 13.0323 4.55358 12.9242L4.93791 12.4752C5.09804 12.2885 5.35483 12.2311 5.58883 12.3079C5.78147 12.3711 5.97939 12.4229 6.18089 12.4637C6.42317 12.5127 6.61666 12.6917 6.66216 12.9346L6.7718 13.5186C6.7978 13.6586 6.91908 13.7598 7.06149 13.7598H7.4585C7.60091 13.7598 7.72221 13.6586 7.74703 13.5197L7.85667 12.9357C7.90217 12.6929 8.09567 12.5139 8.33794 12.4648C8.54003 12.4241 8.73737 12.3723 8.93001 12.309C9.16401 12.2322 9.42079 12.2897 9.58093 12.4764L9.96525 12.9253C10.058 13.0329 10.214 13.0597 10.3369 12.9888L10.6797 12.7903C10.8032 12.7194 10.8585 12.5713 10.8112 12.4371L10.6139 11.8739C10.5323 11.6411 10.6101 11.3907 10.7939 11.2265C10.9458 11.0906 11.0902 10.9467 11.2255 10.7948C11.3898 10.6111 11.6408 10.5332 11.873 10.6148L12.4362 10.8121C12.5704 10.8594 12.7185 10.8035 12.7894 10.6806L12.9879 10.339C13.0594 10.2155 13.0325 10.0589 12.9244 9.96618L12.4755 9.58185C12.2887 9.42172 12.2313 9.16493 12.3081 8.93093C12.3713 8.73829 12.4231 8.54037 12.4639 8.33887C12.513 8.09659 12.6919 7.9031 12.9348 7.8576L13.5188 7.74796C13.6588 7.72196 13.76 7.60068 13.76 7.45827V7.06126C13.76 6.91885 13.6588 6.79814 13.5199 6.77273L12.936 6.66309C12.6931 6.61759 12.5141 6.42294 12.4651 6.18066C12.4243 5.97916 12.3725 5.78124 12.3093 5.5886C12.2324 5.3546 12.2899 5.09897 12.4766 4.93883L12.9256 4.55451C13.0331 4.46174 13.06 4.30464 12.989 4.18173L12.7905 3.83896C12.7196 3.71546 12.5715 3.66011 12.4374 3.70739L11.8742 3.90589C11.6413 3.98744 11.391 3.90963 11.2267 3.72585C11.0908 3.57399 10.9469 3.42953 10.7951 3.29421C10.6113 3.12994 10.5335 2.87957 10.615 2.64675L10.8124 2.08354C10.8596 1.9494 10.8037 1.80129 10.6808 1.73038L10.3392 1.53187C10.2157 1.46037 10.0592 1.48721 9.9664 1.59535L9.58208 2.0443C9.42195 2.23103 9.16516 2.28847 8.93116 2.21165C8.73852 2.14842 8.5406 2.09661 8.3391 2.05584C8.09682 2.0068 7.90333 1.82782 7.85783 1.58496L7.74819 1.00098C7.72219 0.860931 7.60091 0.759766 7.4585 0.759766H7.06149ZM7.25999 3.71431C9.21827 3.71431 10.8054 5.30149 10.8054 7.25977C10.8054 9.21804 9.21827 10.8052 7.25999 10.8052C5.30172 10.8052 3.71454 9.21804 3.71454 7.25977C3.71454 5.30149 5.30172 3.71431 7.25999 3.71431ZM7.25999 6.07795C6.60704 6.07795 6.07818 6.60681 6.07818 7.25977C6.07818 7.91272 6.60704 8.44158 7.25999 8.44158C7.91295 8.44158 8.44181 7.91272 8.44181 7.25977C8.44181 6.60681 7.91295 6.07795 7.25999 6.07795Z" fill="#C4C4C4"/>
</svg>
