<svg width="14" height="14" viewBox="0 0 14 14" fill="none" xmlns="http://www.w3.org/2000/svg">
<path d="M2.92666 0.759766V2.20421H5.81555V0.759766H2.92666ZM8.70444 0.759766V2.20421H11.5933V0.759766H8.70444ZM2.92666 3.64865C2.52799 3.64865 2.20444 3.97221 2.20444 4.37088V5.81532C1.40638 5.81532 0.759995 6.46171 0.759995 7.25977V13.0375C0.759995 13.4362 1.08355 13.7598 1.48222 13.7598H5.81555C6.21422 13.7598 6.53777 13.4362 6.53777 13.0375V8.70421H7.98222V13.0375C7.98222 13.4362 8.30577 13.7598 8.70444 13.7598H13.0378C13.4364 13.7598 13.76 13.4362 13.76 13.0375V7.25977C13.76 6.46171 13.1136 5.81532 12.3155 5.81532V4.37088C12.3155 3.97221 11.992 3.64865 11.5933 3.64865H8.70444C8.30577 3.64865 7.98222 3.97221 7.98222 4.37088V5.81532H6.53777V4.37088C6.53777 3.97221 6.21422 3.64865 5.81555 3.64865H2.92666Z" fill="#C4C4C4"/>
</svg>
