<svg width="14" height="15" viewBox="0 0 14 15" fill="none" xmlns="http://www.w3.org/2000/svg">
<rect width="8.39999" height="1.42518" rx="0.712592" transform="matrix(-1 8.74228e-08 8.74228e-08 1 11.2 0)" fill="#FF1313"/>
<path fill-rule="evenodd" clip-rule="evenodd" d="M2 5.70221C0.895431 5.70221 0 6.59764 0 7.70221V12.2533C0 13.3579 0.89543 14.2533 2 14.2533H12C13.1046 14.2533 14 13.3579 14 12.2533V7.70221C14 6.59764 13.1046 5.70221 12 5.70221H2ZM8.33536 10.838C8.99309 10.4514 8.99309 9.50029 8.33535 9.11372L7.10891 8.39289C6.44228 8.00109 5.60221 8.48176 5.60221 9.25501V10.6967C5.60221 11.4699 6.44228 11.9506 7.10891 11.5588L8.33536 10.838Z" fill="#FF1313"/>
<rect width="11.2" height="1.42518" rx="0.712592" transform="matrix(-1 8.89954e-08 8.5878e-08 1 12.5977 2.84955)" fill="#FF1313"/>
</svg>
