<svg width="14" height="15" viewBox="0 0 14 15" fill="none" xmlns="http://www.w3.org/2000/svg">
<rect width="8.39999" height="1.42518" rx="0.712592" transform="matrix(-1 8.74228e-08 8.74228e-08 1 11.1997 0.528076)" fill="white"/>
<path fill-rule="evenodd" clip-rule="evenodd" d="M2 6.23022C0.895431 6.23022 0 7.12565 0 8.23022V12.7813C0 13.8859 0.89543 14.7813 2 14.7813H12C13.1046 14.7813 14 13.8859 14 12.7813V8.23022C14 7.12566 13.1046 6.23022 12 6.23022H2ZM8.33536 11.366C8.99309 10.9794 8.99309 10.0283 8.33535 9.64173L7.10891 8.92091C6.44228 8.5291 5.60221 9.00978 5.60221 9.78303V11.2247C5.60221 11.9979 6.44228 12.4786 7.10891 12.0868L8.33536 11.366Z" fill="white"/>
<rect width="11.2" height="1.42518" rx="0.712592" transform="matrix(-1 8.89954e-08 8.5878e-08 1 12.5977 3.37769)" fill="white"/>
</svg>
