<svg width="17" height="21" viewBox="0 0 17 21" fill="none" xmlns="http://www.w3.org/2000/svg">
<path d="M14.0273 7H13.0254V5C13.0254 2.24 10.781 0 8.01562 0C5.25023 0 3.00586 2.24 3.00586 5V7H2.00391C0.901757 7 0 7.9 0 9V19C0 20.1 0.901757 21 2.00391 21H14.0273C15.1295 21 16.0312 20.1 16.0312 19V9C16.0312 7.9 15.1295 7 14.0273 7ZM8.01562 16C6.91347 16 6.01172 15.1 6.01172 14C6.01172 12.9 6.91347 12 8.01562 12C9.11777 12 10.0195 12.9 10.0195 14C10.0195 15.1 9.11777 16 8.01562 16ZM11.1217 7H4.90957V5C4.90957 3.29 6.30228 1.9 8.01562 1.9C9.72896 1.9 11.1217 3.29 11.1217 5V7Z" fill="#C4C4C4"/>
</svg>
