<svg width="101" height="20" viewBox="0 0 101 20" fill="none" xmlns="http://www.w3.org/2000/svg">
<path d="M8.16765 3.2236C8.45373 2.2754 9.79631 2.27539 10.0824 3.22359L10.9565 6.12083C11.0839 6.54306 11.4729 6.83198 11.9139 6.83198L14.8914 6.83198C15.8421 6.83198 16.2564 8.03371 15.5076 8.61955L12.9744 10.6017C12.6496 10.8558 12.5141 11.2833 12.6332 11.6781L13.5703 14.784C13.8522 15.7185 12.7655 16.4619 11.9967 15.8604L9.74124 14.0957C9.37925 13.8124 8.87079 13.8124 8.5088 14.0957L6.25335 15.8604C5.48458 16.4619 4.3978 15.7185 4.67975 14.784L5.61683 11.6781C5.73595 11.2833 5.60048 10.8558 5.27568 10.6017L2.7424 8.61955C1.99365 8.03371 2.40792 6.83198 3.35862 6.83198L6.33614 6.83198C6.77717 6.83198 7.16613 6.54306 7.29352 6.12083L8.16765 3.2236Z" fill="#FFCC00"/>
<path d="M27.8112 2.7636C28.1227 1.86863 29.3884 1.86863 29.7 2.7636L30.8828 6.16109C31.0227 6.56299 31.4016 6.83231 31.8272 6.83231L35.4998 6.83231C36.4851 6.83231 36.8766 8.10696 36.061 8.65997L33.2112 10.5925C32.8363 10.8467 32.6791 11.3211 32.828 11.7489L33.9441 14.9548C34.2606 15.8641 33.2353 16.6516 32.4384 16.1112L29.3168 13.9944C28.9779 13.7646 28.5332 13.7646 28.1943 13.9944L25.0727 16.1112C24.2758 16.6516 23.2505 15.8641 23.5671 14.9548L24.6831 11.7489C24.8321 11.3211 24.6749 10.8467 24.3 10.5925L21.4501 8.65997C20.6346 8.10696 21.026 6.83231 22.0114 6.83231L25.684 6.83231C26.1096 6.83231 26.4885 6.56299 26.6284 6.16109L27.8112 2.7636Z" fill="#FFCC00"/>
<path d="M48.1308 2.97783C48.4302 2.05652 49.7336 2.05652 50.033 2.97783L51.0608 6.14133C51.1947 6.55335 51.5787 6.83231 52.0119 6.83231L55.3382 6.83231C56.3069 6.83231 56.7097 8.07193 55.926 8.64133L53.235 10.5965C52.8845 10.8511 52.7378 11.3025 52.8717 11.7145L53.8996 14.878C54.1989 15.7993 53.1444 16.5654 52.3607 15.996L49.6697 14.0409C49.3192 13.7863 48.8446 13.7863 48.4941 14.0409L45.8031 15.996C45.0194 16.5654 43.9649 15.7993 44.2642 14.878L45.2921 11.7145C45.426 11.3025 45.2793 10.8511 44.9289 10.5965L42.2378 8.64133C41.4541 8.07193 41.8569 6.83231 42.8256 6.83231L46.1519 6.83231C46.5851 6.83231 46.9691 6.55335 47.103 6.14133L48.1308 2.97783Z" fill="#FFCC00"/>
<path d="M68.7773 2.97783C69.0767 2.05652 70.3801 2.05652 70.6794 2.97783L71.7073 6.14133C71.8412 6.55335 72.2252 6.83231 72.6584 6.83231L75.9847 6.83231C76.9534 6.83231 77.3562 8.07193 76.5725 8.64133L73.8814 10.5965C73.5309 10.8511 73.3843 11.3025 73.5182 11.7145L74.546 14.878C74.8454 15.7993 73.7909 16.5654 73.0072 15.996L70.3162 14.0409C69.9657 13.7863 69.4911 13.7863 69.1406 14.0409L66.4496 15.996C65.6659 16.5654 64.6114 15.7993 64.9107 14.878L65.9386 11.7145C66.0725 11.3025 65.9258 10.8511 65.5753 10.5965L62.8843 8.64133C62.1006 8.07193 62.5034 6.83231 63.4721 6.83231L66.7984 6.83231C67.2316 6.83231 67.6156 6.55335 67.7494 6.14133L68.7773 2.97783Z" fill="#FFCC00"/>
<path d="M88.789 2.97783C89.0884 2.05652 90.3918 2.05652 90.6912 2.97783L91.719 6.14133C91.8529 6.55335 92.2369 6.83231 92.6701 6.83231L95.9964 6.83231C96.9651 6.83231 97.3679 8.07193 96.5842 8.64133L93.8932 10.5965C93.5427 10.8511 93.396 11.3025 93.5299 11.7145L94.5578 14.878C94.8571 15.7993 93.8026 16.5654 93.0189 15.996L90.3279 14.0409C89.9774 13.7863 89.5028 13.7863 89.1523 14.0409L86.4613 15.996C85.6776 16.5654 84.6231 15.7993 84.9224 14.878L85.9503 11.7145C86.0842 11.3025 85.9375 10.8511 85.5871 10.5965L82.896 8.64133C82.1123 8.07193 82.5151 6.83231 83.4838 6.83231L86.8101 6.83231C87.2433 6.83231 87.6273 6.55335 87.7612 6.14133L88.789 2.97783Z" fill="#C4C4C4"/>
<path d="M88.651 2.7636C88.9626 1.86863 90.2283 1.86863 90.5398 2.7636L91.7226 6.16109C91.8625 6.56299 92.2414 6.83231 92.667 6.83231L96.3396 6.83231C97.325 6.83231 97.7164 8.10696 96.9009 8.65997L94.051 10.5925C93.6762 10.8467 93.519 11.3211 93.6679 11.7489L94.7839 14.9548C95.1005 15.8641 94.0752 16.6516 93.2783 16.1112L90.1567 13.9944C89.8178 13.7646 89.3731 13.7646 89.0342 13.9944L85.9126 16.1112C85.1157 16.6516 84.0904 15.8641 84.4069 14.9548L85.523 11.7489C85.6719 11.3211 85.5147 10.8467 85.1398 10.5925L82.29 8.65997C81.4744 8.10696 81.8659 6.83231 82.8512 6.83231L86.5238 6.83231C86.9494 6.83231 87.3283 6.56299 87.4683 6.16109L88.651 2.7636Z" fill="url(#paint0_linear_149_1190)"/>
<defs>
<linearGradient id="paint0_linear_149_1190" x1="68.5647" y1="19.6794" x2="89.5954" y2="19.6794" gradientUnits="userSpaceOnUse">
<stop offset="0.9999" stop-color="#C4C4C4"/>
<stop offset="1" stop-color="#C4C4C4"/>
</linearGradient>
</defs>
</svg>
