<svg width="235" height="40" viewBox="0 0 235 40" fill="none" xmlns="http://www.w3.org/2000/svg">
<path d="M18.2434 3.73847C18.5427 2.81716 19.8462 2.81716 20.1455 3.73847L23.2794 13.3835C23.4132 13.7955 23.7972 14.0745 24.2304 14.0745H34.3718C35.3405 14.0745 35.7433 15.3141 34.9596 15.8835L26.755 21.8444C26.4045 22.0991 26.2579 22.5504 26.3918 22.9624L29.5256 32.6075C29.825 33.5288 28.7705 34.2949 27.9868 33.7255L19.7822 27.7645C19.4317 27.5099 18.9572 27.5099 18.6067 27.7645L10.4021 33.7255C9.61842 34.2949 8.56394 33.5288 8.86329 32.6075L11.9971 22.9624C12.131 22.5504 11.9844 22.0991 11.6339 21.8444L3.42934 15.8835C2.64563 15.3141 3.0484 14.0745 4.01713 14.0745H14.1585C14.5917 14.0745 14.9757 13.7955 15.1095 13.3835L18.2434 3.73847Z" fill="white"/>
<path d="M67.7448 3.57929C68.0533 2.67744 69.3288 2.67744 69.6372 3.57929L72.9959 13.3995C73.1343 13.804 73.5146 14.0759 73.9421 14.0759H84.6976C85.6787 14.0759 86.0731 15.3416 85.2656 15.8989L76.654 21.8427C76.2854 22.0971 76.1309 22.5656 76.2759 22.9893L79.5858 32.6669C79.8978 33.5792 78.8651 34.3612 78.0715 33.8135L69.2591 27.731C68.9171 27.495 68.4649 27.495 68.123 27.731L59.3105 33.8135C58.5169 34.3612 57.4842 33.5792 57.7963 32.6669L61.1062 22.9893C61.2511 22.5656 61.0966 22.0971 60.728 21.8427L52.1164 15.8989C51.309 15.3416 51.7034 14.0759 52.6845 14.0759H63.4399C63.8675 14.0759 64.2478 13.804 64.3861 13.3995L67.7448 3.57929Z" fill="white"/>
<path d="M116.237 3.57929C116.545 2.67744 117.821 2.67744 118.129 3.57929L121.488 13.3995C121.626 13.804 122.007 14.0759 122.434 14.0759H133.19C134.171 14.0759 134.565 15.3416 133.758 15.8989L125.146 21.8427C124.778 22.0971 124.623 22.5656 124.768 22.9893L128.078 32.6669C128.39 33.5792 127.357 34.3612 126.564 33.8135L117.751 27.731C117.409 27.495 116.957 27.495 116.615 27.731L107.803 33.8135C107.009 34.3612 105.976 33.5792 106.288 32.6669L109.598 22.9893C109.743 22.5656 109.589 22.0971 109.22 21.8427L100.609 15.8989C99.8012 15.3416 100.196 14.0759 101.177 14.0759H111.932C112.36 14.0759 112.74 13.804 112.878 13.3995L116.237 3.57929Z" fill="white"/>
<path d="M164.731 3.57929C165.04 2.67744 166.315 2.67744 166.624 3.57929L169.982 13.3995C170.121 13.804 170.501 14.0759 170.928 14.0759H181.684C182.665 14.0759 183.059 15.3416 182.252 15.8989L173.64 21.8427C173.272 22.0971 173.117 22.5656 173.262 22.9893L176.572 32.6669C176.884 33.5792 175.851 34.3612 175.058 33.8135L166.245 27.731C165.903 27.495 165.451 27.495 165.109 27.731L156.297 33.8135C155.503 34.3612 154.471 33.5792 154.783 32.6669L158.093 22.9893C158.237 22.5656 158.083 22.0971 157.714 21.8427L149.103 15.8989C148.295 15.3416 148.69 14.0759 149.671 14.0759H160.426C160.854 14.0759 161.234 13.804 161.372 13.3995L164.731 3.57929Z" fill="white"/>
<path d="M214.226 3.73988C214.525 2.81856 215.829 2.81857 216.128 3.73988L219.262 13.3849C219.396 13.7969 219.78 14.0759 220.213 14.0759H230.354C231.323 14.0759 231.726 15.3155 230.942 15.8849L222.737 21.8458C222.387 22.1005 222.24 22.5518 222.374 22.9639L225.508 32.6089C225.807 33.5302 224.753 34.2963 223.969 33.7269L215.765 27.766C215.414 27.5113 214.94 27.5113 214.589 27.766L206.385 33.7269C205.601 34.2963 204.546 33.5302 204.846 32.6089L207.98 22.9639C208.113 22.5518 207.967 22.1005 207.616 21.8458L199.412 15.8849C198.628 15.3155 199.031 14.0759 200 14.0759H210.141C210.574 14.0759 210.958 13.7969 211.092 13.3849L214.226 3.73988Z" fill="white"/>
</svg>
