<svg width="25" height="25" viewBox="0 0 25 25" fill="none" xmlns="http://www.w3.org/2000/svg">
<path d="M6.95838 2.02564L5.1655 0.192308C2.15647 2.53846 0.175527 6.15385 0 10.2564H2.50752C2.69559 6.85897 4.4007 3.88462 6.95838 2.02564ZM22.4925 10.2564H25C24.8119 6.15385 22.831 2.53846 19.8345 0.192308L18.0542 2.02564C20.5868 3.88462 22.3044 6.85897 22.4925 10.2564ZM20.0226 10.8974C20.0226 6.96154 17.9664 3.66667 14.3806 2.79487V1.92308C14.3806 0.858974 13.5406 0 12.5 0C11.4594 0 10.6194 0.858974 10.6194 1.92308V2.79487C7.02107 3.66667 4.97743 6.94872 4.97743 10.8974V17.3077L2.46991 19.8718V21.1538H22.5301V19.8718L20.0226 17.3077V10.8974ZM12.5 25C12.6755 25 12.8385 24.9872 13.0015 24.9487C13.8165 24.7692 14.4809 24.2051 14.8069 23.4359C14.9323 23.1282 14.995 22.7949 14.995 22.4359H9.97994C9.99248 23.8462 11.1083 25 12.5 25Z" fill="#FF1313"/>
</svg>
