<svg width="21" height="20" viewBox="0 0 21 20" fill="none" xmlns="http://www.w3.org/2000/svg">
<path d="M4.39129 2.92537L1.99806 0.614248C1.61205 0.241487 0.976023 0.522455 0.993724 1.05345L1.09699 7.45253C1.10287 7.78976 1.36879 8.04656 1.70602 8.04067L8.09653 7.92912C8.62752 7.91142 8.88612 7.26597 8.50011 6.89321L6.10688 4.58209C9.19666 1.38253 14.574 1.68503 17.2144 5.59417C18.7722 7.87771 18.8178 10.9719 17.3489 13.2999C15.035 16.9835 10.2992 17.6818 7.06229 15.3516C6.59257 15.0141 5.92727 15.0678 5.52138 15.4882C5.02436 16.0028 5.08138 16.8536 5.66232 17.282C9.94161 20.3867 16.192 19.4933 19.3209 14.6738C21.3822 11.4922 21.3083 7.25998 19.1373 4.15224C15.5569 -0.946453 8.48339 -1.31212 4.39129 2.92537Z" fill="white" fill-opacity="0.86"/>
</svg>
