<svg width="20" height="34" viewBox="0 0 20 34" fill="none" xmlns="http://www.w3.org/2000/svg">
<path d="M1.15374 1.57083C0.883358 1.84067 0.668844 2.16117 0.522482 2.51401C0.376119 2.86685 0.300781 3.24509 0.300781 3.62708C0.300781 4.00908 0.376119 4.38732 0.522482 4.74015C0.668844 5.09299 0.883358 5.4135 1.15374 5.68333L12.4704 17L1.15374 28.3167C0.608392 28.862 0.302016 29.6017 0.302016 30.3729C0.302016 31.1442 0.608392 31.8838 1.15374 32.4292C1.69909 32.9745 2.43875 33.2809 3.20999 33.2809C3.98124 33.2809 4.72089 32.9745 5.26624 32.4292L18.6537 19.0417C18.9241 18.7718 19.1386 18.4513 19.285 18.0985C19.4314 17.7456 19.5067 17.3674 19.5067 16.9854C19.5067 16.6034 19.4314 16.2252 19.285 15.8723C19.1386 15.5195 18.9241 15.199 18.6537 14.9292L5.26624 1.54167C4.15791 0.433333 2.29124 0.433334 1.15374 1.57083Z" fill="white"/>
</svg>
