<svg width="26" height="29" viewBox="0 0 26 29" fill="none" xmlns="http://www.w3.org/2000/svg">
<path d="M20.9261 4.14625C20.8142 4.14625 20.7022 4.11875 20.6042 4.06375C17.9171 2.7025 15.5938 2.125 12.8087 2.125C10.0376 2.125 7.40646 2.77125 5.01322 4.06375C4.67733 4.2425 4.25746 4.11875 4.06152 3.78875C3.87958 3.45875 4.00554 3.0325 4.34144 2.85375C6.9446 1.465 9.79969 0.75 12.8087 0.75C15.7898 0.75 18.393 1.39625 21.248 2.84C21.5979 3.01875 21.7239 3.43125 21.5419 3.76125C21.416 4.00875 21.1781 4.14625 20.9261 4.14625ZM0.898534 11.365C0.758578 11.365 0.618623 11.3238 0.492663 11.2413C0.170766 11.0213 0.100788 10.595 0.324717 10.2788C1.71027 8.35375 3.47371 6.84125 5.57304 5.7825C9.96764 3.555 15.5938 3.54125 20.0024 5.76875C22.1018 6.8275 23.8652 8.32625 25.2508 10.2375C25.4747 10.54 25.4047 10.98 25.0828 11.2C24.7609 11.42 24.3271 11.3513 24.1031 11.035C22.8435 9.3025 21.248 7.94125 19.3586 6.9925C15.3419 4.97125 10.2056 4.97125 6.20284 7.00625C4.29945 7.96875 2.70396 9.34375 1.44436 11.0763C1.3324 11.2688 1.12246 11.365 0.898534 11.365ZM9.64574 27.9613C9.4638 27.9613 9.28186 27.8925 9.1559 27.755C7.93829 26.5588 7.2805 25.7888 6.3428 24.125C5.37711 22.4338 4.87327 20.3713 4.87327 18.1575C4.87327 14.0738 8.42813 10.7463 12.7947 10.7463C17.1613 10.7463 20.7162 14.0738 20.7162 18.1575C20.7162 18.5425 20.4083 18.845 20.0164 18.845C19.6246 18.845 19.3167 18.5425 19.3167 18.1575C19.3167 14.83 16.3916 12.1213 12.7947 12.1213C9.19789 12.1213 6.27282 14.83 6.27282 18.1575C6.27282 20.1375 6.72068 21.9663 7.57441 23.4513C8.47012 25.0325 9.08592 25.7063 10.1636 26.7788C10.4295 27.0538 10.4295 27.48 10.1636 27.755C10.0096 27.8925 9.82769 27.9613 9.64574 27.9613ZM19.6805 25.4175C18.0151 25.4175 16.5455 25.005 15.3419 24.1938C13.2566 22.805 12.011 20.55 12.011 18.1575C12.011 17.7725 12.3189 17.47 12.7108 17.47C13.1026 17.47 13.4105 17.7725 13.4105 18.1575C13.4105 20.0963 14.4182 21.925 16.1257 23.0525C17.1194 23.7125 18.281 24.0288 19.6805 24.0288C20.0164 24.0288 20.5763 23.9875 21.1361 23.8913C21.514 23.8225 21.8778 24.07 21.9478 24.455C22.0178 24.8263 21.7659 25.1838 21.374 25.2525C20.5763 25.4038 19.8765 25.4175 19.6805 25.4175ZM16.8674 28.25C16.8115 28.25 16.7415 28.2363 16.6855 28.2225C14.4602 27.6175 13.0047 26.8063 11.4792 25.335C9.51978 23.4238 8.44213 20.88 8.44213 18.1575C8.44213 15.93 10.3735 14.115 12.7528 14.115C15.132 14.115 17.0634 15.93 17.0634 18.1575C17.0634 19.6288 18.365 20.825 19.9744 20.825C21.5839 20.825 22.8855 19.6288 22.8855 18.1575C22.8855 12.9738 18.337 8.76625 12.7388 8.76625C8.76402 8.76625 5.12519 10.9388 3.48771 14.3075C2.94188 15.4213 2.66197 16.7275 2.66197 18.1575C2.66197 19.23 2.75994 20.9213 3.59967 23.1213C3.73963 23.4788 3.55769 23.8775 3.1938 24.0013C2.82992 24.1388 2.42405 23.9463 2.29809 23.6025C1.61231 21.8013 1.27641 20.0138 1.27641 18.1575C1.27641 16.5075 1.59831 15.0088 2.22811 13.7025C4.08952 9.86625 8.2182 7.3775 12.7388 7.3775C19.1067 7.3775 24.2851 12.2038 24.2851 18.1438C24.2851 20.3713 22.3537 22.1863 19.9744 22.1863C17.5952 22.1863 15.6638 20.3713 15.6638 18.1438C15.6638 16.6725 14.3622 15.4763 12.7528 15.4763C11.1433 15.4763 9.84168 16.6725 9.84168 18.1438C9.84168 20.495 10.7654 22.695 12.4588 24.345C13.7884 25.6375 15.062 26.3525 17.0354 26.8888C17.4133 26.985 17.6232 27.37 17.5252 27.7275C17.4553 28.0438 17.1613 28.25 16.8674 28.25Z" fill="#C4C4C4"/>
</svg>
