<svg width="21" height="20" viewBox="0 0 21 20" fill="none" xmlns="http://www.w3.org/2000/svg">
<path d="M10.1684 0C4.54982 0 0 4.48 0 10C0 15.52 4.54982 20 10.1684 20C15.7971 20 20.3571 15.52 20.3571 10C20.3571 4.48 15.7971 0 10.1684 0ZM17.2221 6H14.2195C13.8938 4.75 13.4255 3.55 12.8148 2.44C14.6877 3.07 16.245 4.35 17.2221 6ZM10.1786 2.04C11.0234 3.24 11.685 4.57 12.1227 6H8.23447C8.67214 4.57 9.33375 3.24 10.1786 2.04ZM2.30036 12C2.1375 11.36 2.03571 10.69 2.03571 10C2.03571 9.31 2.1375 8.64 2.30036 8H5.74072C5.65929 8.66 5.59822 9.32 5.59822 10C5.59822 10.68 5.65929 11.34 5.74072 12H2.30036ZM3.135 14H6.13768C6.46339 15.25 6.93161 16.45 7.54232 17.56C5.66947 16.93 4.11214 15.66 3.135 14ZM6.13768 6H3.135C4.11214 4.34 5.66947 3.07 7.54232 2.44C6.93161 3.55 6.46339 4.75 6.13768 6ZM10.1786 17.96C9.33375 16.76 8.67214 15.43 8.23447 14H12.1227C11.685 15.43 11.0234 16.76 10.1786 17.96ZM12.5604 12H7.79679C7.70518 11.34 7.63393 10.68 7.63393 10C7.63393 9.32 7.70518 8.65 7.79679 8H12.5604C12.652 8.65 12.7232 9.32 12.7232 10C12.7232 10.68 12.652 11.34 12.5604 12ZM12.8148 17.56C13.4255 16.45 13.8938 15.25 14.2195 14H17.2221C16.245 15.65 14.6877 16.93 12.8148 17.56ZM14.6164 12C14.6979 11.34 14.7589 10.68 14.7589 10C14.7589 9.32 14.6979 8.66 14.6164 8H18.0568C18.2196 8.64 18.3214 9.31 18.3214 10C18.3214 10.69 18.2196 11.36 18.0568 12H14.6164Z" fill="#C4C4C4"/>
</svg>
