<svg width="22" height="18" viewBox="0 0 22 18" fill="none" xmlns="http://www.w3.org/2000/svg">
<path d="M19.2498 0.75H2.74984C1.7415 0.75 0.916504 1.575 0.916504 2.58333V4.41667C0.916504 4.92083 1.329 5.33333 1.83317 5.33333C2.33734 5.33333 2.74984 4.92083 2.74984 4.41667V3.5C2.74984 2.99583 3.16234 2.58333 3.6665 2.58333H18.3332C18.8373 2.58333 19.2498 2.99583 19.2498 3.5V14.5C19.2498 15.0042 18.8373 15.4167 18.3332 15.4167H13.7498C13.2457 15.4167 12.8332 15.8292 12.8332 16.3333C12.8332 16.8375 13.2457 17.25 13.7498 17.25H19.2498C20.2582 17.25 21.0832 16.425 21.0832 15.4167V2.58333C21.0832 1.575 20.2582 0.75 19.2498 0.75ZM1.9615 10.9158C1.4115 10.8242 0.916504 11.2733 0.916504 11.8325C0.916504 12.2817 1.2465 12.6575 1.69567 12.7308C3.60234 13.0608 5.10567 14.5642 5.43567 16.4708C5.50901 16.92 5.88484 17.25 6.33401 17.25C6.89317 17.25 7.33317 16.755 7.25067 16.205C6.81067 13.4917 4.66567 11.3558 1.9615 10.9158ZM0.916504 14.5V17.25H3.6665C3.6665 15.7283 2.43817 14.5 0.916504 14.5ZM1.92484 7.2125C1.384 7.16667 0.916504 7.58833 0.916504 8.12917C0.916504 8.59667 1.26484 8.99083 1.72317 9.03667C5.63734 9.4125 8.75401 12.5292 9.12984 16.4433C9.17567 16.9017 9.56984 17.2408 10.0373 17.2408C10.5873 17.2408 11.009 16.7642 10.954 16.2233C10.4682 11.4658 6.68234 7.68917 1.92484 7.2125Z" fill="white"/>
</svg>
