<svg width="23" height="18" viewBox="0 0 23 18" fill="none" xmlns="http://www.w3.org/2000/svg">
<path opacity="0.3" d="M11.1853 0C4.72484 0 0.385701 3.50514 0 3.78934L3.08561 7.48395L11.1853 17.5257L14.5602 13.4522V10.9891C14.5602 8.90495 15.9102 7.19975 17.7422 6.53661C18.0315 6.44188 18.2244 6.34715 18.5136 6.34715C18.8029 6.25241 19.0922 6.25241 19.3815 6.25241C19.7672 6.25241 20.0564 6.25241 20.3457 6.34715L22.3707 3.78934C21.985 3.50514 17.6458 0 11.1853 0Z" fill="#C4C4C4"/>
<path d="M21.7934 12.316V10.895C21.7934 9.56871 20.7327 8.52664 19.3828 8.52664C18.0328 8.52664 16.9721 9.56871 16.9721 10.895V12.316C16.49 12.316 16.0079 12.7897 16.0079 13.2633V17.0527C16.0079 17.5263 16.49 18 16.9721 18H21.7934C22.2755 18 22.7576 17.5263 22.7576 17.0527V13.2633C22.7576 12.7897 22.2755 12.316 21.7934 12.316ZM20.8291 12.316H17.9364V10.895C17.9364 10.1371 18.6114 9.47398 19.3828 9.47398C20.1542 9.47398 20.8291 10.1371 20.8291 10.895V12.316ZM11.1866 17.5263L14.5615 13.4528V10.9897C14.5615 8.90558 15.9114 7.20038 17.7435 6.53724C16.2971 5.68464 13.9829 4.7373 11.1866 4.7373C6.55821 4.7373 3.4726 7.20038 2.99048 7.48458" fill="#C4C4C4"/>
</svg>
