<svg width="21" height="20" viewBox="0 0 21 20" fill="none" xmlns="http://www.w3.org/2000/svg">
<path d="M10.1786 0C4.55695 0 0 4.477 0 10C0 15.523 4.55695 20 10.1786 20C15.8002 20 20.3571 15.523 20.3571 10C20.3571 4.477 15.8002 0 10.1786 0ZM10.1786 15C9.61672 15 9.16072 14.552 9.16072 14V10C9.16072 9.448 9.61672 9 10.1786 9C10.7404 9 11.1964 9.448 11.1964 10V14C11.1964 14.552 10.7404 15 10.1786 15ZM10.6875 7H9.66964C9.38872 7 9.16072 6.776 9.16072 6.5V5.5C9.16072 5.224 9.38872 5 9.66964 5H10.6875C10.9684 5 11.1964 5.224 11.1964 5.5V6.5C11.1964 6.776 10.9684 7 10.6875 7Z" fill="#C4C4C4"/>
</svg>
