<svg width="10" height="10" viewBox="0 0 10 10" fill="none" xmlns="http://www.w3.org/2000/svg">
<path fill-rule="evenodd" clip-rule="evenodd" d="M3.69842 7.66606C5.741 7.66606 7.39684 5.94995 7.39684 3.83303C7.39684 1.71611 5.741 0 3.69842 0C1.65584 0 0 1.71611 0 3.83303C0 5.94995 1.65584 7.66606 3.69842 7.66606ZM3.73199 6.34913C5.05373 6.34913 6.12521 5.23866 6.12521 3.86881C6.12521 2.49897 5.05373 1.38849 3.73199 1.38849C2.41026 1.38849 1.33878 2.49897 1.33878 3.86881C1.33878 5.23866 2.41026 6.34913 3.73199 6.34913Z" fill="#C4C4C4"/>
<rect width="4.45662" height="1.86377" rx="0.931884" transform="matrix(-0.694358 -0.71963 0.694358 -0.71963 7.92969 10)" fill="#C4C4C4"/>
</svg>
