<svg width="17" height="17" viewBox="0 0 17 17" fill="none" xmlns="http://www.w3.org/2000/svg">
<path d="M1.21429 13.3571H3.64286V15.7857C3.64286 16.4536 4.18929 17 4.85714 17C5.525 17 6.07143 16.4536 6.07143 15.7857V12.1429C6.07143 11.475 5.525 10.9286 4.85714 10.9286H1.21429C0.546429 10.9286 0 11.475 0 12.1429C0 12.8107 0.546429 13.3571 1.21429 13.3571ZM3.64286 3.64286H1.21429C0.546429 3.64286 0 4.18929 0 4.85714C0 5.525 0.546429 6.07143 1.21429 6.07143H4.85714C5.525 6.07143 6.07143 5.525 6.07143 4.85714V1.21429C6.07143 0.546429 5.525 0 4.85714 0C4.18929 0 3.64286 0.546429 3.64286 1.21429V3.64286ZM12.1429 17C12.8107 17 13.3571 16.4536 13.3571 15.7857V13.3571H15.7857C16.4536 13.3571 17 12.8107 17 12.1429C17 11.475 16.4536 10.9286 15.7857 10.9286H12.1429C11.475 10.9286 10.9286 11.475 10.9286 12.1429V15.7857C10.9286 16.4536 11.475 17 12.1429 17ZM13.3571 3.64286V1.21429C13.3571 0.546429 12.8107 0 12.1429 0C11.475 0 10.9286 0.546429 10.9286 1.21429V4.85714C10.9286 5.525 11.475 6.07143 12.1429 6.07143H15.7857C16.4536 6.07143 17 5.525 17 4.85714C17 4.18929 16.4536 3.64286 15.7857 3.64286H13.3571Z" fill="white"/>
</svg>
