<svg width="157" height="26" viewBox="0 0 157 26" fill="none" xmlns="http://www.w3.org/2000/svg">
<path d="M11.9012 3.50097C12.6428 2.04413 14.7241 2.04413 15.4658 3.50097L17.1784 6.8649C17.4777 7.45294 18.0479 7.85548 18.7022 7.94076L22.4221 8.42558C24.1104 8.64562 24.7692 10.7401 23.5108 11.887L20.9378 14.2321C20.4248 14.6997 20.1909 15.3999 20.3199 16.082L20.9693 19.5151C21.2782 21.1475 19.5773 22.4229 18.0967 21.6691L14.591 19.8841C14.0208 19.5938 13.3462 19.5938 12.776 19.8841L9.27025 21.6691C7.78972 22.4229 6.08882 21.1475 6.39763 19.5151L7.04707 16.082C7.1761 15.3999 6.94221 14.6997 6.42916 14.2321L3.85613 11.887C2.59779 10.7401 3.25659 8.64562 4.94489 8.42558L8.66477 7.94076C9.31909 7.85548 9.88924 7.45294 10.1886 6.8649L11.9012 3.50097Z" fill="#FFC700"/>
<path d="M44.3094 3.50097C45.051 2.04413 47.1323 2.04413 47.874 3.50097L49.5866 6.8649C49.8859 7.45294 50.4561 7.85548 51.1104 7.94076L54.8303 8.42558C56.5186 8.64562 57.1774 10.7401 55.919 11.887L53.346 14.2321C52.833 14.6997 52.5991 15.3999 52.7281 16.082L53.3775 19.5151C53.6864 21.1475 51.9855 22.4229 50.5049 21.6691L46.9992 19.8841C46.429 19.5938 45.7544 19.5938 45.1842 19.8841L41.6785 21.6691C40.1979 22.4229 38.497 21.1475 38.8058 19.5151L39.4553 16.082C39.5843 15.3999 39.3504 14.6997 38.8374 14.2321L36.2643 11.887C35.006 10.7401 35.6648 8.64562 37.3531 8.42558L41.073 7.94076C41.7273 7.85548 42.2974 7.45294 42.5968 6.8649L44.3094 3.50097Z" fill="#FFC700"/>
<path d="M76.7176 3.50097C77.4592 2.04413 79.5405 2.04413 80.2822 3.50097L81.9948 6.8649C82.2941 7.45294 82.8643 7.85548 83.5186 7.94076L87.2385 8.42558C88.9268 8.64562 89.5856 10.7401 88.3272 11.887L85.7542 14.2321C85.2412 14.6997 85.0073 15.3999 85.1363 16.082L85.7857 19.5151C86.0946 21.1475 84.3937 22.4229 82.9131 21.6691L79.4074 19.8841C78.8372 19.5938 78.1626 19.5938 77.5924 19.8841L74.0867 21.6691C72.6061 22.4229 70.9052 21.1475 71.214 19.5151L71.8635 16.082C71.9925 15.3999 71.7586 14.6997 71.2456 14.2321L68.6725 11.887C67.4142 10.7401 68.073 8.64562 69.7613 8.42558L73.4812 7.94076C74.1355 7.85548 74.7056 7.45294 75.005 6.8649L76.7176 3.50097Z" fill="#FFC700"/>
<path d="M109.126 3.50097C109.867 2.04413 111.949 2.04413 112.69 3.50097L114.403 6.8649C114.702 7.45294 115.272 7.85548 115.927 7.94076L119.647 8.42558C121.335 8.64562 121.994 10.7401 120.735 11.887L118.162 14.2321C117.649 14.6997 117.415 15.3999 117.545 16.082L118.194 19.5151C118.503 21.1475 116.802 22.4229 115.321 21.6691L111.816 19.8841C111.245 19.5938 110.571 19.5938 110.001 19.8841L106.495 21.6691C105.014 22.4229 103.313 21.1475 103.622 19.5151L104.272 16.082C104.401 15.3999 104.167 14.6997 103.654 14.2321L101.081 11.887C99.8224 10.7401 100.481 8.64562 102.169 8.42558L105.889 7.94076C106.544 7.85548 107.114 7.45294 107.413 6.8649L109.126 3.50097Z" fill="#FFC700"/>
<path d="M144.43 3.84124L146.143 7.20516C146.554 8.01372 147.338 8.56721 148.238 8.68447L151.958 9.16929C153.013 9.30682 153.425 10.6159 152.638 11.3327L150.065 13.6778C149.36 14.3208 149.038 15.2835 149.216 16.2214L149.865 19.6545C150.058 20.6747 148.995 21.4719 148.07 21.0007L144.564 19.2157C143.78 18.8165 142.852 18.8165 142.069 19.2157L138.563 21.0007C137.637 21.4719 136.574 20.6747 136.767 19.6545L137.417 16.2214C137.594 15.2835 137.273 14.3208 136.567 13.6778L133.994 11.3327C133.208 10.6159 133.619 9.30682 134.675 9.16929L138.395 8.68447C139.294 8.56721 140.078 8.01372 140.49 7.20516L142.202 3.84124C142.666 2.93071 143.967 2.93071 144.43 3.84124Z" stroke="#FFC700" stroke-width="1.5"/>
</svg>
