<svg width="22" height="21" viewBox="0 0 22 21" fill="none" xmlns="http://www.w3.org/2000/svg">
<path d="M6.08365 1.70154L4.51615 0.161539C1.88538 2.13231 0.153462 5.16923 0 8.61539H2.19231C2.35673 5.76154 3.8475 3.26308 6.08365 1.70154ZM19.665 8.61539H21.8573C21.6929 5.16923 19.961 2.13231 17.3412 0.161539L15.7846 1.70154C17.9988 3.26308 19.5006 5.76154 19.665 8.61539ZM17.5056 9.15385C17.5056 5.84769 15.7079 3.08 12.5729 2.34769V1.61538C12.5729 0.721538 11.8385 0 10.9287 0C10.0188 0 9.28442 0.721538 9.28442 1.61538V2.34769C6.13846 3.08 4.35173 5.83692 4.35173 9.15385V14.5385L2.15942 16.6923V17.7692H19.6979V16.6923L17.5056 14.5385V9.15385ZM10.9287 21C11.0821 21 11.2246 20.9892 11.3671 20.9569C12.0796 20.8062 12.6606 20.3323 12.9456 19.6862C13.0552 19.4277 13.11 19.1477 13.11 18.8462H8.72538C8.73635 20.0308 9.71192 21 10.9287 21Z" fill="#C4C4C4"/>
</svg>
