<svg width="74" height="24" viewBox="0 0 74 24" fill="none" xmlns="http://www.w3.org/2000/svg">
<path d="M30.5004 14V12.427H32.8274C33.4167 12.427 33.9324 12.3057 34.3744 12.063C34.8164 11.8117 35.1587 11.4607 35.4014 11.01C35.6527 10.5593 35.7784 10.0263 35.7784 9.411C35.7784 8.813 35.6527 8.293 35.4014 7.851C35.15 7.40033 34.8034 7.05367 34.3614 6.811C33.9194 6.55967 33.408 6.434 32.8274 6.434H30.4614V4.861H32.8534C33.5294 4.861 34.1534 4.97367 34.7254 5.199C35.306 5.42433 35.8087 5.745 36.2334 6.161C36.6667 6.56833 37.0004 7.04933 37.2344 7.604C37.477 8.15867 37.5984 8.76533 37.5984 9.424C37.5984 10.0827 37.477 10.6937 37.2344 11.257C37.0004 11.8117 36.671 12.297 36.2464 12.713C35.8217 13.1203 35.319 13.4367 34.7384 13.662C34.1664 13.8873 33.5467 14 32.8794 14H30.5004ZM29.2914 14V4.861H31.0594V14H29.2914ZM42.0323 14.13C41.3996 14.13 40.8276 13.987 40.3163 13.701C39.8136 13.4063 39.4106 13.012 39.1073 12.518C38.8126 12.0153 38.6653 11.4563 38.6653 10.841C38.6653 10.2257 38.8126 9.67533 39.1073 9.19C39.402 8.696 39.805 8.306 40.3163 8.02C40.8276 7.72533 41.3953 7.578 42.0193 7.578C42.6606 7.578 43.2326 7.72533 43.7353 8.02C44.2466 8.306 44.6496 8.696 44.9443 9.19C45.239 9.67533 45.3863 10.2257 45.3863 10.841C45.3863 11.4563 45.239 12.0153 44.9443 12.518C44.6496 13.012 44.2466 13.4063 43.7353 13.701C43.2326 13.987 42.665 14.13 42.0323 14.13ZM42.0193 12.544C42.34 12.544 42.6216 12.4747 42.8643 12.336C43.1156 12.1887 43.3063 11.9893 43.4363 11.738C43.575 11.478 43.6443 11.1833 43.6443 10.854C43.6443 10.5247 43.575 10.2343 43.4363 9.983C43.2976 9.73167 43.107 9.53667 42.8643 9.398C42.6216 9.25067 42.34 9.177 42.0193 9.177C41.7073 9.177 41.43 9.25067 41.1873 9.398C40.9446 9.53667 40.754 9.73167 40.6153 9.983C40.4766 10.2343 40.4073 10.5247 40.4073 10.854C40.4073 11.1833 40.4766 11.478 40.6153 11.738C40.754 11.9893 40.9446 12.1887 41.1873 12.336C41.43 12.4747 41.7073 12.544 42.0193 12.544ZM50.9677 14V10.399C50.9677 10.0263 50.8507 9.723 50.6167 9.489C50.3827 9.255 50.0793 9.138 49.7067 9.138C49.464 9.138 49.2473 9.19 49.0567 9.294C48.866 9.398 48.7143 9.54533 48.6017 9.736C48.4977 9.92667 48.4457 10.1477 48.4457 10.399L47.7827 10.061C47.7827 9.567 47.8867 9.138 48.0947 8.774C48.3113 8.40133 48.606 8.111 48.9787 7.903C49.36 7.695 49.789 7.591 50.2657 7.591C50.725 7.591 51.1367 7.708 51.5007 7.942C51.8647 8.16733 52.1507 8.46633 52.3587 8.839C52.5667 9.203 52.6707 9.59733 52.6707 10.022V14H50.9677ZM46.7427 14V7.721H48.4457V14H46.7427ZM56.9285 14.13C56.3565 14.13 55.8408 13.987 55.3815 13.701C54.9221 13.415 54.5625 13.025 54.3025 12.531C54.0425 12.037 53.9125 11.4823 53.9125 10.867C53.9125 10.243 54.0425 9.684 54.3025 9.19C54.5625 8.696 54.9221 8.306 55.3815 8.02C55.8408 7.734 56.3565 7.591 56.9285 7.591C57.3791 7.591 57.7821 7.682 58.1375 7.864C58.4928 8.046 58.7745 8.30167 58.9825 8.631C59.1991 8.95167 59.3161 9.31567 59.3335 9.723V11.985C59.3161 12.401 59.1991 12.7693 58.9825 13.09C58.7745 13.4107 58.4928 13.6663 58.1375 13.857C57.7821 14.039 57.3791 14.13 56.9285 14.13ZM57.2405 12.557C57.7171 12.557 58.1028 12.401 58.3975 12.089C58.6921 11.7683 58.8395 11.3567 58.8395 10.854C58.8395 10.5247 58.7701 10.2343 58.6315 9.983C58.5015 9.723 58.3151 9.52367 58.0725 9.385C57.8385 9.23767 57.5611 9.164 57.2405 9.164C56.9285 9.164 56.6511 9.23767 56.4085 9.385C56.1745 9.52367 55.9881 9.723 55.8495 9.983C55.7195 10.2343 55.6545 10.5247 55.6545 10.854C55.6545 11.192 55.7195 11.491 55.8495 11.751C55.9881 12.0023 56.1745 12.2017 56.4085 12.349C56.6511 12.4877 56.9285 12.557 57.2405 12.557ZM58.7485 14V12.31L59.0215 10.776L58.7485 9.268V7.721H60.4385V14H58.7485ZM63.128 14V5.108H64.831V14H63.128ZM61.659 9.216V7.721H66.3V9.216H61.659ZM70.3684 14.13C69.7098 14.13 69.1248 13.9913 68.6134 13.714C68.1021 13.428 67.6948 13.038 67.3914 12.544C67.0968 12.05 66.9494 11.4867 66.9494 10.854C66.9494 10.23 67.0924 9.67533 67.3784 9.19C67.6731 8.696 68.0718 8.306 68.5744 8.02C69.0771 7.72533 69.6361 7.578 70.2514 7.578C70.8581 7.578 71.3911 7.71667 71.8504 7.994C72.3184 8.26267 72.6824 8.63533 72.9424 9.112C73.2111 9.58 73.3454 10.113 73.3454 10.711C73.3454 10.8237 73.3368 10.9407 73.3194 11.062C73.3108 11.1747 73.2891 11.3047 73.2544 11.452L67.9764 11.465V10.191L72.4614 10.178L71.7724 10.711C71.7551 10.3383 71.6858 10.0263 71.5644 9.775C71.4518 9.52367 71.2828 9.333 71.0574 9.203C70.8408 9.06433 70.5721 8.995 70.2514 8.995C69.9134 8.995 69.6188 9.073 69.3674 9.229C69.1161 9.37633 68.9211 9.58867 68.7824 9.866C68.6524 10.1347 68.5874 10.4553 68.5874 10.828C68.5874 11.2093 68.6568 11.543 68.7954 11.829C68.9428 12.1063 69.1508 12.323 69.4194 12.479C69.6881 12.6263 70.0001 12.7 70.3554 12.7C70.6761 12.7 70.9664 12.648 71.2264 12.544C71.4864 12.4313 71.7118 12.2667 71.9024 12.05L72.9034 13.051C72.6001 13.4063 72.2274 13.675 71.7854 13.857C71.3521 14.039 70.8798 14.13 70.3684 14.13Z" fill="#FFCC00"/>
<path d="M8 11.4002C8 12.1702 8.6 12.8002 9.33 12.8002H10.83C11.47 12.8002 11.99 12.2502 11.99 11.5802C11.99 10.8502 11.67 10.5902 11.2 10.4202L8.8 9.58016C8.32 9.41016 8 9.15016 8 8.42016C8 7.75016 8.52 7.20016 9.16 7.20016H10.66C11.4 7.21016 12 7.83016 12 8.60016M10 12.8502V13.5902M10 6.41016V7.19016" stroke="#FFCC00" stroke-width="1.5" stroke-linecap="round" stroke-linejoin="round"/>
<path d="M12.98 19.88C13.88 21.15 15.35 21.98 17.03 21.98C19.76 21.98 21.98 19.76 21.98 17.03C21.98 15.37 21.16 13.9 19.91 13M9.99 17.98C12.1091 17.98 14.1414 17.1382 15.6398 15.6398C17.1382 14.1414 17.98 12.1091 17.98 9.99C17.98 7.87092 17.1382 5.83863 15.6398 4.34022C14.1414 2.8418 12.1091 2 9.99 2C7.87092 2 5.83863 2.8418 4.34022 4.34022C2.8418 5.83863 2 7.87092 2 9.99C2 12.1091 2.8418 14.1414 4.34022 15.6398C5.83863 17.1382 7.87092 17.98 9.99 17.98Z" stroke="#FFCC00" stroke-width="1.5" stroke-linecap="round" stroke-linejoin="round"/>
</svg>
