<svg width="11" height="11" viewBox="0 0 11 11" fill="none" xmlns="http://www.w3.org/2000/svg">
<path d="M1.24984 6.9165C0.860254 6.9165 0.541504 7.23525 0.541504 7.62484V9.74984C0.541504 10.1394 0.860254 10.4582 1.24984 10.4582H3.37484C3.76442 10.4582 4.08317 10.1394 4.08317 9.74984C4.08317 9.36025 3.76442 9.0415 3.37484 9.0415H1.95817V7.62484C1.95817 7.23525 1.63942 6.9165 1.24984 6.9165ZM1.24984 4.08317C1.63942 4.08317 1.95817 3.76442 1.95817 3.37484V1.95817H3.37484C3.76442 1.95817 4.08317 1.63942 4.08317 1.24984C4.08317 0.860254 3.76442 0.541504 3.37484 0.541504H1.24984C0.860254 0.541504 0.541504 0.860254 0.541504 1.24984V3.37484C0.541504 3.76442 0.860254 4.08317 1.24984 4.08317ZM9.0415 9.0415H7.62484C7.23525 9.0415 6.9165 9.36025 6.9165 9.74984C6.9165 10.1394 7.23525 10.4582 7.62484 10.4582H9.74984C10.1394 10.4582 10.4582 10.1394 10.4582 9.74984V7.62484C10.4582 7.23525 10.1394 6.9165 9.74984 6.9165C9.36025 6.9165 9.0415 7.23525 9.0415 7.62484V9.0415ZM6.9165 1.24984C6.9165 1.63942 7.23525 1.95817 7.62484 1.95817H9.0415V3.37484C9.0415 3.76442 9.36025 4.08317 9.74984 4.08317C10.1394 4.08317 10.4582 3.76442 10.4582 3.37484V1.24984C10.4582 0.860254 10.1394 0.541504 9.74984 0.541504H7.62484C7.23525 0.541504 6.9165 0.860254 6.9165 1.24984Z" fill="white"/>
</svg>
