<svg width="89" height="17" viewBox="0 0 89 17" fill="none" xmlns="http://www.w3.org/2000/svg">
<path d="M14.1665 2.8335H2.83317C2.054 2.8335 1.4165 3.471 1.4165 4.25016V12.7502C1.4165 13.5293 2.054 14.1668 2.83317 14.1668H14.1665C14.9457 14.1668 15.5832 13.5293 15.5832 12.7502V4.25016C15.5832 3.471 14.9457 2.8335 14.1665 2.8335ZM3.5415 8.50016H4.95817C5.34775 8.50016 5.6665 8.81891 5.6665 9.20849C5.6665 9.59807 5.34775 9.91682 4.95817 9.91682H3.5415C3.15192 9.91682 2.83317 9.59807 2.83317 9.20849C2.83317 8.81891 3.15192 8.50016 3.5415 8.50016ZM9.20817 12.7502H3.5415C3.15192 12.7502 2.83317 12.4314 2.83317 12.0418C2.83317 11.6522 3.15192 11.3335 3.5415 11.3335H9.20817C9.59775 11.3335 9.9165 11.6522 9.9165 12.0418C9.9165 12.4314 9.59775 12.7502 9.20817 12.7502ZM13.4582 12.7502H12.0415C11.6519 12.7502 11.3332 12.4314 11.3332 12.0418C11.3332 11.6522 11.6519 11.3335 12.0415 11.3335H13.4582C13.8478 11.3335 14.1665 11.6522 14.1665 12.0418C14.1665 12.4314 13.8478 12.7502 13.4582 12.7502ZM13.4582 9.91682H7.7915C7.40192 9.91682 7.08317 9.59807 7.08317 9.20849C7.08317 8.81891 7.40192 8.50016 7.7915 8.50016H13.4582C13.8478 8.50016 14.1665 8.81891 14.1665 9.20849C14.1665 9.59807 13.8478 9.91682 13.4582 9.91682Z" fill="white"/>
<path d="M21.3463 12L24.1763 4.97H25.2863L28.1063 12H26.6563L24.4763 6.23H24.9763L22.7663 12H21.3463ZM22.8463 10.69V9.55H26.6263V10.69H22.8463ZM30.9589 12.1C30.5323 12.1 30.1523 12.01 29.8189 11.83C29.4923 11.65 29.2356 11.4 29.0489 11.08C28.8623 10.76 28.7689 10.39 28.7689 9.97V7.17H30.0889V9.94C30.0889 10.14 30.1223 10.3133 30.1889 10.46C30.2556 10.6 30.3556 10.7067 30.4889 10.78C30.6223 10.8533 30.7789 10.89 30.9589 10.89C31.2323 10.89 31.4456 10.8067 31.5989 10.64C31.7523 10.4733 31.8289 10.24 31.8289 9.94V7.17H33.1389V9.97C33.1389 10.3967 33.0456 10.77 32.8589 11.09C32.6789 11.41 32.4223 11.66 32.0889 11.84C31.7623 12.0133 31.3856 12.1 30.9589 12.1ZM36.4221 12.1C35.9755 12.1 35.5755 11.99 35.2221 11.77C34.8688 11.55 34.5888 11.25 34.3821 10.87C34.1821 10.49 34.0821 10.0633 34.0821 9.59C34.0821 9.11 34.1821 8.68 34.3821 8.3C34.5888 7.92 34.8655 7.62 35.2121 7.4C35.5655 7.18 35.9688 7.07 36.4221 7.07C36.7688 7.07 37.0788 7.14 37.3521 7.28C37.6321 7.42 37.8555 7.61667 38.0221 7.87C38.1955 8.11667 38.2888 8.39667 38.3021 8.71V10.43C38.2888 10.7433 38.1988 11.0267 38.0321 11.28C37.8655 11.5333 37.6421 11.7333 37.3621 11.88C37.0821 12.0267 36.7688 12.1 36.4221 12.1ZM36.6421 10.89C36.8888 10.89 37.1021 10.8367 37.2821 10.73C37.4688 10.6167 37.6121 10.4633 37.7121 10.27C37.8188 10.07 37.8721 9.84 37.8721 9.58C37.8721 9.32667 37.8188 9.10333 37.7121 8.91C37.6121 8.71 37.4688 8.55667 37.2821 8.45C37.1021 8.33667 36.8921 8.28 36.6521 8.28C36.4055 8.28 36.1888 8.33667 36.0021 8.45C35.8221 8.56333 35.6788 8.71667 35.5721 8.91C35.4721 9.10333 35.4221 9.32667 35.4221 9.58C35.4221 9.84 35.4721 10.07 35.5721 10.27C35.6788 10.4633 35.8255 10.6167 36.0121 10.73C36.1988 10.8367 36.4088 10.89 36.6421 10.89ZM39.1021 12H37.8021V10.7L38.0121 9.52L37.7921 8.36V4.77H39.1021V12ZM40.4611 12V7.17H41.7811V12H40.4611ZM41.1211 6.39C40.9077 6.39 40.7311 6.32 40.5911 6.18C40.4511 6.03333 40.3811 5.85333 40.3811 5.64C40.3811 5.43333 40.4511 5.25667 40.5911 5.11C40.7311 4.96333 40.9077 4.89 41.1211 4.89C41.3411 4.89 41.5177 4.96333 41.6511 5.11C41.7911 5.25667 41.8611 5.43333 41.8611 5.64C41.8611 5.85333 41.7911 6.03333 41.6511 6.18C41.5177 6.32 41.3411 6.39 41.1211 6.39ZM45.4115 12.1C44.9249 12.1 44.4849 11.99 44.0915 11.77C43.7049 11.5433 43.3949 11.24 43.1615 10.86C42.9349 10.4733 42.8215 10.0433 42.8215 9.57C42.8215 9.09667 42.9349 8.67333 43.1615 8.3C43.3882 7.92 43.6982 7.62 44.0915 7.4C44.4849 7.17333 44.9215 7.06 45.4015 7.06C45.8949 7.06 46.3349 7.17333 46.7215 7.4C47.1149 7.62 47.4249 7.92 47.6515 8.3C47.8782 8.67333 47.9915 9.09667 47.9915 9.57C47.9915 10.0433 47.8782 10.4733 47.6515 10.86C47.4249 11.24 47.1149 11.5433 46.7215 11.77C46.3349 11.99 45.8982 12.1 45.4115 12.1ZM45.4015 10.88C45.6482 10.88 45.8649 10.8267 46.0515 10.72C46.2449 10.6067 46.3915 10.4533 46.4915 10.26C46.5982 10.06 46.6515 9.83333 46.6515 9.58C46.6515 9.32667 46.5982 9.10333 46.4915 8.91C46.3849 8.71667 46.2382 8.56667 46.0515 8.46C45.8649 8.34667 45.6482 8.29 45.4015 8.29C45.1615 8.29 44.9482 8.34667 44.7615 8.46C44.5749 8.56667 44.4282 8.71667 44.3215 8.91C44.2149 9.10333 44.1615 9.32667 44.1615 9.58C44.1615 9.83333 44.2149 10.06 44.3215 10.26C44.4282 10.4533 44.5749 10.6067 44.7615 10.72C44.9482 10.8267 45.1615 10.88 45.4015 10.88ZM48.5149 12.47L51.1449 4.52H52.3249L49.6949 12.47H48.5149ZM55.3407 12.1C54.774 12.1 54.2873 12.0033 53.8807 11.81C53.4807 11.6167 53.1173 11.3267 52.7907 10.94L53.6907 10.04C53.8973 10.3133 54.1373 10.5267 54.4107 10.68C54.684 10.8267 55.0173 10.9 55.4107 10.9C55.764 10.9 56.044 10.83 56.2507 10.69C56.464 10.55 56.5707 10.3567 56.5707 10.11C56.5707 9.89667 56.5107 9.72333 56.3907 9.59C56.2707 9.45667 56.1107 9.34333 55.9107 9.25C55.7173 9.15667 55.5007 9.07333 55.2607 9C55.0273 8.92 54.7907 8.83 54.5507 8.73C54.3173 8.63 54.1007 8.50667 53.9007 8.36C53.7073 8.20667 53.5507 8.01333 53.4307 7.78C53.3107 7.54 53.2507 7.24 53.2507 6.88C53.2507 6.45333 53.354 6.09 53.5607 5.79C53.7673 5.49 54.0507 5.26 54.4107 5.1C54.7707 4.94 55.1773 4.86 55.6307 4.86C56.1107 4.86 56.544 4.95 56.9307 5.13C57.3173 5.31 57.634 5.54333 57.8807 5.83L56.9807 6.73C56.774 6.50333 56.5607 6.33667 56.3407 6.23C56.1273 6.12333 55.884 6.07 55.6107 6.07C55.2973 6.07 55.0507 6.13 54.8707 6.25C54.6907 6.37 54.6007 6.54333 54.6007 6.77C54.6007 6.96333 54.6607 7.12 54.7807 7.24C54.9007 7.36 55.0573 7.46333 55.2507 7.55C55.4507 7.63667 55.6673 7.72 55.9007 7.8C56.1407 7.88 56.3773 7.97 56.6107 8.07C56.8507 8.17 57.0673 8.3 57.2607 8.46C57.4607 8.62 57.6207 8.82667 57.7407 9.08C57.8607 9.32667 57.9207 9.63333 57.9207 10C57.9207 10.6533 57.6907 11.1667 57.2307 11.54C56.7707 11.9133 56.1407 12.1 55.3407 12.1ZM61.114 12.1C60.6874 12.1 60.3074 12.01 59.974 11.83C59.6474 11.65 59.3907 11.4 59.204 11.08C59.0174 10.76 58.924 10.39 58.924 9.97V7.17H60.244V9.94C60.244 10.14 60.2774 10.3133 60.344 10.46C60.4107 10.6 60.5107 10.7067 60.644 10.78C60.7774 10.8533 60.934 10.89 61.114 10.89C61.3874 10.89 61.6007 10.8067 61.754 10.64C61.9074 10.4733 61.984 10.24 61.984 9.94V7.17H63.294V9.97C63.294 10.3967 63.2007 10.77 63.014 11.09C62.834 11.41 62.5774 11.66 62.244 11.84C61.9174 12.0133 61.5407 12.1 61.114 12.1ZM67.2172 12.1C66.8706 12.1 66.5572 12.0267 66.2772 11.88C65.9972 11.7333 65.7739 11.5333 65.6072 11.28C65.4406 11.0267 65.3506 10.7433 65.3372 10.43V8.71C65.3506 8.39667 65.4406 8.11667 65.6072 7.87C65.7806 7.61667 66.0072 7.42 66.2872 7.28C66.5672 7.14 66.8772 7.07 67.2172 7.07C67.6639 7.07 68.0639 7.18 68.4172 7.4C68.7706 7.62 69.0472 7.92 69.2472 8.3C69.4539 8.68 69.5572 9.11 69.5572 9.59C69.5572 10.0633 69.4539 10.49 69.2472 10.87C69.0472 11.25 68.7706 11.55 68.4172 11.77C68.0639 11.99 67.6639 12.1 67.2172 12.1ZM66.9972 10.89C67.2372 10.89 67.4472 10.8367 67.6272 10.73C67.8139 10.6167 67.9572 10.4633 68.0572 10.27C68.1639 10.07 68.2172 9.84 68.2172 9.58C68.2172 9.32667 68.1639 9.10333 68.0572 8.91C67.9572 8.71 67.8139 8.55667 67.6272 8.45C67.4406 8.33667 67.2272 8.28 66.9872 8.28C66.7472 8.28 66.5339 8.33667 66.3472 8.45C66.1672 8.55667 66.0239 8.71 65.9172 8.91C65.8172 9.10333 65.7672 9.32667 65.7672 9.58C65.7672 9.84 65.8172 10.07 65.9172 10.27C66.0239 10.4633 66.1706 10.6167 66.3572 10.73C66.5439 10.8367 66.7572 10.89 66.9972 10.89ZM64.5372 12V4.77H65.8472V8.36L65.6272 9.52L65.8372 10.7V12H64.5372ZM71.2089 12V5.16H72.5189V12H71.2089ZM70.0789 8.32V7.17H73.6489V8.32H70.0789ZM74.5857 12V7.17H75.9057V12H74.5857ZM75.2457 6.39C75.0323 6.39 74.8557 6.32 74.7157 6.18C74.5757 6.03333 74.5057 5.85333 74.5057 5.64C74.5057 5.43333 74.5757 5.25667 74.7157 5.11C74.8557 4.96333 75.0323 4.89 75.2457 4.89C75.4657 4.89 75.6423 4.96333 75.7757 5.11C75.9157 5.25667 75.9857 5.43333 75.9857 5.64C75.9857 5.85333 75.9157 6.03333 75.7757 6.18C75.6423 6.32 75.4657 6.39 75.2457 6.39ZM77.9761 12V5.16H79.2861V12H77.9761ZM76.8461 8.32V7.17H80.4161V8.32H76.8461ZM81.3529 12V4.77H82.6629V12H81.3529ZM86.3336 12.1C85.8269 12.1 85.3769 11.9933 84.9836 11.78C84.5902 11.56 84.2769 11.26 84.0436 10.88C83.8169 10.5 83.7036 10.0667 83.7036 9.58C83.7036 9.1 83.8136 8.67333 84.0336 8.3C84.2602 7.92 84.5669 7.62 84.9536 7.4C85.3402 7.17333 85.7702 7.06 86.2436 7.06C86.7102 7.06 87.1202 7.16667 87.4736 7.38C87.8336 7.58667 88.1136 7.87333 88.3136 8.24C88.5202 8.6 88.6236 9.01 88.6236 9.47C88.6236 9.55667 88.6169 9.64667 88.6036 9.74C88.5969 9.82667 88.5802 9.92667 88.5536 10.04L84.4936 10.05V9.07L87.9436 9.06L87.4136 9.47C87.4002 9.18333 87.3469 8.94333 87.2536 8.75C87.1669 8.55667 87.0369 8.41 86.8636 8.31C86.6969 8.20333 86.4902 8.15 86.2436 8.15C85.9836 8.15 85.7569 8.21 85.5636 8.33C85.3702 8.44333 85.2202 8.60667 85.1136 8.82C85.0136 9.02667 84.9636 9.27333 84.9636 9.56C84.9636 9.85333 85.0169 10.11 85.1236 10.33C85.2369 10.5433 85.3969 10.71 85.6036 10.83C85.8102 10.9433 86.0502 11 86.3236 11C86.5702 11 86.7936 10.96 86.9936 10.88C87.1936 10.7933 87.3669 10.6667 87.5136 10.5L88.2836 11.27C88.0502 11.5433 87.7636 11.75 87.4236 11.89C87.0902 12.03 86.7269 12.1 86.3336 12.1Z" fill="white"/>
</svg>
