<svg width="13" height="13" viewBox="0 0 13 13" fill="none" xmlns="http://www.w3.org/2000/svg">
<path d="M0.125 5.08339V7.91673C0.125 8.30631 0.44375 8.62506 0.833333 8.62506H2.95833L5.28875 10.9555C5.735 11.4017 6.5 11.083 6.5 10.4526V2.54048C6.5 1.91006 5.735 1.59131 5.28875 2.03756L2.95833 4.37506H0.833333C0.44375 4.37506 0.125 4.69381 0.125 5.08339ZM9.6875 6.50006C9.6875 5.24631 8.965 4.16964 7.91667 3.64548V9.34756C8.965 8.83048 9.6875 7.75381 9.6875 6.50006ZM7.91667 1.15214V1.29381C7.91667 1.56298 8.09375 1.79673 8.34167 1.89589C10.1692 2.62548 11.4583 4.41756 11.4583 6.50006C11.4583 8.58256 10.1692 10.3746 8.34167 11.1042C8.08667 11.2034 7.91667 11.4371 7.91667 11.7063V11.848C7.91667 12.2942 8.36292 12.6059 8.77375 12.4501C11.175 11.5363 12.875 9.22006 12.875 6.50006C12.875 3.78006 11.175 1.46381 8.77375 0.55006C8.36292 0.387144 7.91667 0.705893 7.91667 1.15214Z" fill="white"/>
</svg>
