<svg width="29" height="35" viewBox="0 0 29 35" fill="none" xmlns="http://www.w3.org/2000/svg">
<path d="M13.9998 6.74993V1.86743C13.9998 1.07993 13.0548 0.694931 12.5123 1.25493L5.8623 7.88743C5.5123 8.23743 5.5123 8.77993 5.8623 9.12993L12.4948 15.7624C13.0548 16.3049 13.9998 15.9199 13.9998 15.1324V10.2499C20.5273 10.2499 25.6898 16.2349 24.2548 23.0074C23.4323 26.9799 20.2123 30.1824 16.2573 31.0049C10.0098 32.3174 4.4448 28.0299 3.6048 22.2374C3.4823 21.3974 2.7473 20.7499 1.8898 20.7499C0.839805 20.7499 -0.000195146 21.6774 0.139805 22.7274C1.2248 30.4099 8.5398 36.0974 16.8173 34.4874C22.2773 33.4199 26.6698 29.0274 27.7373 23.5674C29.4698 14.5899 22.6448 6.74993 13.9998 6.74993Z" fill="white"/>
<path d="M8.71605 20V18.71H11.1261V26H9.68605V20H8.71605ZM12.7091 22.26C12.7091 21.1067 12.9158 20.2033 13.3291 19.55C13.7491 18.8967 14.4424 18.57 15.4091 18.57C16.3758 18.57 17.0658 18.8967 17.4791 19.55C17.8991 20.2033 18.1091 21.1067 18.1091 22.26C18.1091 23.42 17.8991 24.33 17.4791 24.99C17.0658 25.65 16.3758 25.98 15.4091 25.98C14.4424 25.98 13.7491 25.65 13.3291 24.99C12.9158 24.33 12.7091 23.42 12.7091 22.26ZM16.7291 22.26C16.7291 21.7667 16.6958 21.3533 16.6291 21.02C16.5691 20.68 16.4424 20.4033 16.2491 20.19C16.0624 19.9767 15.7824 19.87 15.4091 19.87C15.0358 19.87 14.7524 19.9767 14.5591 20.19C14.3724 20.4033 14.2458 20.68 14.1791 21.02C14.1191 21.3533 14.0891 21.7667 14.0891 22.26C14.0891 22.7667 14.1191 23.1933 14.1791 23.54C14.2391 23.88 14.3658 24.1567 14.5591 24.37C14.7524 24.5767 15.0358 24.68 15.4091 24.68C15.7824 24.68 16.0658 24.5767 16.2591 24.37C16.4524 24.1567 16.5791 23.88 16.6391 23.54C16.6991 23.1933 16.7291 22.7667 16.7291 22.26Z" fill="white"/>
</svg>
