<svg width="28" height="34" viewBox="0 0 28 34" fill="none" xmlns="http://www.w3.org/2000/svg">
<path d="M14.008 5.76019V0.877685C14.008 0.0901852 14.953 -0.294815 15.4955 0.265185L22.1455 6.89769C22.4955 7.24769 22.4955 7.79019 22.1455 8.14019L15.513 14.7727C14.953 15.3152 14.008 14.9302 14.008 14.1427V9.26019C7.48051 9.26019 2.31801 15.2452 3.75301 22.0177C4.57551 25.9902 7.79551 29.1927 11.7505 30.0152C17.998 31.3277 23.563 27.0402 24.403 21.2477C24.5255 20.4077 25.2605 19.7602 26.118 19.7602C27.168 19.7602 28.008 20.6877 27.868 21.7377C26.783 29.4202 19.468 35.1077 11.1905 33.4977C5.73051 32.4302 1.33801 28.0377 0.270508 22.5777C-1.46199 13.6002 5.36301 5.76019 14.008 5.76019Z" fill="white"/>
<path d="M8.59154 19.0103V17.7203H11.0015V25.0103H9.56154V19.0103H8.59154ZM12.5846 21.2703C12.5846 20.1169 12.7913 19.2136 13.2046 18.5603C13.6246 17.9069 14.3179 17.5803 15.2846 17.5803C16.2513 17.5803 16.9413 17.9069 17.3546 18.5603C17.7746 19.2136 17.9846 20.1169 17.9846 21.2703C17.9846 22.4303 17.7746 23.3403 17.3546 24.0003C16.9413 24.6603 16.2513 24.9903 15.2846 24.9903C14.3179 24.9903 13.6246 24.6603 13.2046 24.0003C12.7913 23.3403 12.5846 22.4303 12.5846 21.2703ZM16.6046 21.2703C16.6046 20.7769 16.5713 20.3636 16.5046 20.0303C16.4446 19.6903 16.3179 19.4136 16.1246 19.2003C15.9379 18.9869 15.6579 18.8803 15.2846 18.8803C14.9113 18.8803 14.6279 18.9869 14.4346 19.2003C14.2479 19.4136 14.1213 19.6903 14.0546 20.0303C13.9946 20.3636 13.9646 20.7769 13.9646 21.2703C13.9646 21.7769 13.9946 22.2036 14.0546 22.5503C14.1146 22.8903 14.2413 23.1669 14.4346 23.3803C14.6279 23.5869 14.9113 23.6903 15.2846 23.6903C15.6579 23.6903 15.9413 23.5869 16.1346 23.3803C16.3279 23.1669 16.4546 22.8903 16.5146 22.5503C16.5746 22.2036 16.6046 21.7769 16.6046 21.2703Z" fill="white"/>
</svg>
