<svg width="30" height="20" viewBox="0 0 30 20" fill="none" xmlns="http://www.w3.org/2000/svg">
<path d="M3 0C1.3425 0 0 1.11875 0 2.5V17.5C0 18.8813 1.3425 20 3 20H27C28.6575 20 30 18.8813 30 17.5V2.5C30 1.11875 28.6575 0 27 0H3ZM18.583 6.25C19.513 6.25 20.5986 6.63818 20.5986 6.63818L20.1328 8.18848C20.1328 8.18848 19.357 7.6709 18.583 7.6709C17.4985 7.6709 17.1885 8.05976 17.1885 8.44726C17.1885 9.35102 20.2881 9.47787 20.2881 11.2866C20.2866 12.8341 18.1177 13.8678 16.7227 13.7378C15.1732 13.7378 14.3994 13.3521 14.3994 13.3521L14.71 11.8018C14.71 11.8018 15.6389 12.1899 16.8779 12.1899C18.1169 12.1899 18.2725 11.8005 18.2725 11.543C18.2725 10.3805 15.1729 10.7686 15.1729 8.44482C15.1729 7.28232 16.258 6.25 18.583 6.25ZM8.82129 6.37939H10.9893L7.73438 13.6108H5.41113L3.70606 7.80029C3.70606 7.80029 5.56589 8.70344 6.65039 10.8984C6.65039 11.1572 6.80567 11.5454 6.80567 11.5454L8.82129 6.37939ZM23.8506 6.37939H26.1738L27.8789 13.6108H26.0186L25.708 12.5781H22.9189L22.4561 13.6108H20.2852L23.8506 6.37939ZM11.918 6.50635H14.2412L12.8467 13.7378H10.6787L11.918 6.50635ZM1.07227 6.50879H4.48242C5.41242 6.50879 5.72168 7.15332 5.72168 7.15332L6.49512 10.3809C5.56512 7.66961 1.07227 6.50879 1.07227 6.50879ZM24.624 8.57422L23.3848 11.2866H25.2422L24.624 8.57422Z" fill="white"/>
</svg>
